<?xml version="1.0" encoding="UTF-8" ?>
<!DOCTYPE svg PUBLIC "-//W3C//DTD SVG 1.1//EN" "http://www.w3.org/Graphics/SVG/1.1/DTD/svg11.dtd">
<svg width="298pt" height="86pt" viewBox="0 0 298 86" version="1.1" xmlns="http://www.w3.org/2000/svg">
<g id="#7fb4d8ff">
<path fill="#7fb4d8" opacity="1.00" d=" M 29.31 6.30 C 38.40 0.87 49.60 -1.01 59.95 1.29 C 71.50 3.59 81.79 11.11 87.80 21.20 C 95.35 33.62 95.76 49.92 89.05 62.80 C 82.97 55.61 78.19 47.45 72.19 40.20 C 71.09 40.61 69.99 41.01 68.89 41.41 C 66.66 39.83 64.42 38.25 62.17 36.69 C 62.66 39.27 63.17 41.84 63.63 44.42 C 60.24 40.31 57.66 35.64 54.68 31.25 C 53.57 29.63 52.37 28.07 51.15 26.53 C 48.32 29.14 45.65 31.92 42.68 34.36 C 38.66 35.56 35.18 37.92 31.62 40.03 C 29.37 41.23 27.48 42.99 26.10 45.13 C 21.95 51.25 17.70 57.31 13.38 63.31 C 8.88 54.69 7.13 44.54 9.14 34.98 C 11.29 23.09 18.93 12.41 29.31 6.30 M 72.84 10.77 C 75.51 13.31 79.04 16.44 77.49 20.58 C 76.38 25.00 71.66 26.12 67.73 26.44 C 70.25 27.63 73.04 28.77 75.87 27.96 C 80.87 26.93 84.34 20.86 81.94 16.15 C 80.45 12.50 76.49 11.02 72.84 10.77 Z" />
<path fill="#7fb4d8" opacity="1.00" d=" M 174.20 32.25 C 175.39 32.21 176.58 32.19 177.77 32.20 C 177.84 33.73 177.86 35.27 177.81 36.80 C 176.80 36.61 175.81 36.37 174.83 36.08 C 173.95 35.03 174.42 33.50 174.20 32.25 Z" />
<path fill="#7fb4d8" opacity="1.00" d=" M 191.83 31.68 C 193.67 31.45 196.24 31.59 196.46 33.97 C 196.29 36.88 195.79 39.77 195.50 42.67 C 197.80 41.65 202.03 39.46 203.20 43.07 C 202.70 46.98 202.96 50.84 204.53 54.50 C 202.66 54.41 200.37 54.48 199.42 52.50 C 198.87 50.16 199.79 47.78 199.97 45.44 C 198.49 45.78 196.95 46.10 195.85 47.23 C 195.34 49.52 195.60 51.89 195.51 54.22 C 193.81 53.99 191.71 53.67 191.19 51.70 C 190.53 48.75 191.87 45.86 192.30 42.98 C 193.15 39.23 192.01 35.44 191.83 31.68 Z" />
<path fill="#7fb4d8" opacity="1.00" d=" M 235.27 34.25 C 236.27 31.46 239.78 32.10 241.60 33.79 C 242.74 32.76 244.01 31.07 245.62 32.43 C 245.98 33.81 245.91 35.26 245.95 36.68 C 244.51 36.44 243.08 36.13 241.68 35.78 C 240.11 39.69 238.83 43.71 237.97 47.84 C 237.25 50.31 237.05 53.34 234.70 54.90 C 232.67 55.34 230.16 54.86 229.13 52.87 C 227.41 49.78 227.32 46.13 226.34 42.79 C 225.55 39.47 223.88 36.46 222.73 33.27 C 225.79 32.34 229.53 33.53 229.99 37.07 C 230.58 41.20 228.61 47.76 233.93 49.43 C 235.63 44.52 234.99 39.31 235.27 34.25 Z" />
<path fill="#7fb4d8" opacity="1.00" d=" M 101.57 34.03 C 102.25 32.41 104.29 33.37 105.60 33.30 C 108.35 33.76 111.36 32.27 113.91 33.91 C 115.57 34.67 116.08 36.49 116.68 38.06 C 113.05 37.65 109.41 37.13 105.76 37.63 C 105.66 39.12 105.58 40.60 105.51 42.09 C 108.19 41.40 110.82 40.09 113.65 40.25 C 115.89 40.78 115.45 43.49 115.42 45.22 C 112.37 45.05 109.33 44.79 106.29 44.70 C 106.41 45.64 106.64 47.53 106.76 48.47 C 109.59 48.15 112.42 47.81 115.26 47.61 C 115.90 49.47 116.02 51.42 115.98 53.38 C 113.35 53.53 110.72 53.21 108.10 53.13 C 106.02 53.12 103.43 55.49 101.84 53.21 C 99.56 50.59 101.26 46.91 101.67 43.91 C 102.75 40.66 102.12 37.31 101.57 34.03 Z" />
<path fill="#7fb4d8" opacity="1.00" d=" M 209.17 33.77 C 211.06 33.34 212.95 33.51 214.73 34.29 C 214.66 35.69 214.53 37.08 214.35 38.47 C 215.54 38.97 216.71 39.51 217.87 40.08 C 217.91 40.78 217.99 42.19 218.02 42.89 C 215.98 42.93 213.93 42.92 211.88 42.96 C 211.48 45.16 211.12 47.40 211.83 49.58 C 214.02 49.59 216.20 49.54 218.39 49.60 C 218.24 51.47 218.22 53.58 216.62 54.86 C 213.37 56.27 209.44 53.95 208.18 50.86 C 207.85 48.89 208.06 46.89 208.14 44.91 C 206.78 44.66 205.43 44.39 204.11 44.04 C 204.10 43.34 204.09 41.92 204.09 41.22 C 205.99 40.83 207.90 40.46 209.81 40.07 C 209.63 37.97 209.38 35.87 209.17 33.77 Z" />
<path fill="#7fb4d8" opacity="1.00" d=" M 263.17 33.78 C 264.97 33.52 267.03 33.05 268.53 34.44 C 268.83 35.78 268.53 37.14 268.39 38.48 C 269.56 38.98 270.72 39.51 271.87 40.08 C 271.91 40.78 271.98 42.19 272.02 42.89 C 269.97 42.92 267.91 42.92 265.86 42.96 C 265.51 45.10 265.31 47.27 265.53 49.44 C 267.76 49.58 269.99 49.54 272.22 49.55 C 272.00 46.05 272.34 41.69 275.82 39.82 C 278.89 38.21 283.48 37.41 286.14 40.17 C 286.22 43.13 284.90 45.97 284.80 48.94 C 286.09 50.63 289.63 52.30 287.74 54.70 C 285.93 55.12 284.29 54.17 282.62 53.66 C 280.33 53.97 277.96 55.60 275.66 54.38 C 274.43 53.46 273.51 52.23 272.53 51.08 C 271.99 52.39 271.56 53.77 270.68 54.90 C 267.38 56.21 263.46 54.00 262.18 50.86 C 261.85 48.89 262.06 46.90 262.13 44.92 C 258.90 45.47 258.04 41.52 254.99 41.51 C 252.92 40.80 249.42 42.29 250.86 44.83 C 253.22 46.33 257.35 45.71 257.99 49.18 C 259.24 51.94 256.56 54.66 253.91 54.94 C 250.65 55.26 247.42 54.40 244.16 54.61 C 242.26 54.85 241.01 52.71 241.58 51.04 C 242.27 46.70 243.05 42.28 242.14 37.91 C 243.40 38.02 244.67 38.13 245.94 38.25 C 245.91 42.45 245.49 46.66 245.99 50.85 C 248.71 50.47 253.42 52.35 253.59 48.21 C 251.51 47.09 247.83 47.47 247.22 44.66 C 246.98 39.69 253.86 35.60 257.59 39.48 C 259.07 41.74 261.67 40.39 263.80 40.15 C 263.64 38.02 263.38 35.90 263.17 33.78 M 274.53 47.98 C 274.07 50.54 277.72 52.85 279.40 50.49 C 280.64 47.75 281.60 44.72 281.20 41.67 C 278.15 42.51 274.80 44.48 274.53 47.98 Z" />
<path fill="#7fb4d8" opacity="1.00" d=" M 143.15 39.63 C 144.42 37.62 146.39 36.27 148.86 36.72 C 149.45 38.34 149.99 39.99 150.53 41.63 C 153.72 39.31 157.98 40.43 160.97 37.69 C 161.87 38.64 162.76 39.60 163.67 40.54 C 166.20 39.15 169.28 37.20 172.20 38.72 C 174.48 42.41 170.75 47.09 173.47 50.75 C 174.53 46.56 174.93 42.18 174.13 37.91 C 175.41 38.02 176.69 38.15 177.97 38.29 C 177.70 43.69 177.51 49.11 178.67 54.45 C 175.52 54.15 170.95 56.55 169.18 52.83 C 167.33 49.37 169.48 45.45 169.30 41.80 C 167.20 42.19 164.36 42.05 163.27 44.32 C 162.29 47.87 163.52 51.79 161.74 55.17 C 160.45 54.58 158.46 54.56 158.27 52.78 C 158.37 49.62 159.57 46.57 159.48 43.37 C 156.70 44.34 153.24 44.03 151.06 46.27 C 150.11 49.09 150.83 52.13 150.64 55.05 C 149.02 55.51 146.97 55.80 146.00 54.05 C 143.77 50.58 146.88 46.72 146.99 43.08 C 147.01 40.95 144.47 40.68 143.15 39.63 Z" />
<path fill="#7fb4d8" opacity="1.00" d=" M 116.20 38.64 C 117.82 38.22 119.77 37.42 121.18 38.80 C 122.98 41.50 120.64 45.63 123.82 47.61 C 125.46 44.53 125.30 39.59 129.12 38.27 C 131.00 37.51 131.88 39.52 132.67 40.80 C 131.09 42.52 129.35 44.10 128.02 46.03 C 126.36 48.48 126.24 51.55 125.09 54.22 C 122.50 56.31 119.61 52.59 119.66 50.02 C 119.47 45.97 118.65 41.97 116.20 38.64 Z" />
<path fill="#7fb4d8" opacity="1.00" d=" M 133.60 39.68 C 136.41 37.48 142.59 37.69 143.00 42.13 C 143.69 44.50 142.95 47.44 140.57 48.54 C 138.59 49.28 136.41 49.13 134.34 49.42 C 136.38 52.82 140.54 50.26 143.63 50.57 C 143.10 51.96 143.06 53.89 141.35 54.40 C 136.94 56.57 131.48 52.57 131.21 47.91 C 131.09 45.01 131.91 42.05 133.60 39.68 M 134.62 44.87 C 136.14 45.03 137.95 46.37 139.36 45.35 C 141.06 44.74 140.66 42.12 138.92 42.11 C 136.81 41.29 135.87 43.70 134.62 44.87 Z" />
<path fill="#7fb4d8" opacity="1.00" d=" M 180.37 48.63 C 177.08 45.77 178.73 39.63 183.12 39.01 C 185.65 38.40 190.62 37.38 190.97 41.16 C 190.99 45.83 189.03 50.42 190.32 55.10 C 192.21 62.71 176.70 62.61 178.63 54.99 C 180.70 55.65 182.75 56.39 184.85 56.99 C 186.46 54.90 187.08 52.33 187.50 49.78 C 185.15 49.74 182.12 50.78 180.37 48.63 M 182.64 42.97 C 182.66 45.97 185.11 47.38 187.86 47.19 C 187.93 45.31 187.94 43.42 187.89 41.54 C 186.04 41.61 184.28 42.13 182.64 42.97 Z" />
<path fill="#7fb4d8" opacity="1.00" d=" M 32.30 58.63 C 35.59 62.74 38.58 67.10 42.25 70.89 C 43.09 71.86 43.95 72.83 44.80 73.79 C 46.42 77.12 48.63 80.11 51.08 82.86 C 52.29 81.25 53.49 79.61 54.67 77.97 C 55.72 76.56 56.70 75.10 57.67 73.63 C 61.64 68.24 65.73 62.93 69.94 57.73 C 73.45 62.55 76.69 67.55 80.23 72.34 C 80.43 72.63 80.83 73.23 81.04 73.52 C 67.51 87.46 44.08 89.80 27.98 79.03 C 25.59 77.51 23.40 75.71 21.29 73.84 C 22.24 72.24 23.17 70.60 24.36 69.15 C 27.25 65.83 29.74 62.21 32.30 58.63 Z" />
</g>
<g id="#e49937ff">
<path fill="#e49937" opacity="1.00" d=" M 72.84 10.77 C 76.49 11.02 80.45 12.50 81.94 16.15 C 84.34 20.86 80.87 26.93 75.87 27.96 C 73.04 28.77 70.25 27.63 67.73 26.44 C 71.66 26.12 76.38 25.00 77.49 20.58 C 79.04 16.44 75.51 13.31 72.84 10.77 Z" />
</g>
<g id="#747f92fe">
<path fill="#747f92" opacity="1.00" d=" M 42.68 34.36 C 45.65 31.92 48.32 29.14 51.15 26.53 C 52.37 28.07 53.57 29.63 54.68 31.25 C 53.38 30.48 52.05 29.76 50.73 29.03 C 50.64 32.27 50.68 35.52 51.36 38.70 C 50.24 40.13 49.11 41.56 47.99 42.99 C 49.44 44.90 50.88 46.83 52.27 48.79 C 49.63 51.69 46.95 54.55 44.09 57.23 C 43.20 55.95 42.31 54.66 41.39 53.40 C 42.72 48.57 42.55 43.52 41.78 38.62 C 41.72 38.14 41.61 37.18 41.56 36.70 C 41.05 36.87 40.04 37.22 39.53 37.39 C 40.54 36.34 41.60 35.34 42.68 34.36 Z" />
</g>
<g id="#eef8fcff">
<path fill="#eef8fc" opacity="1.00" d=" M 50.73 29.03 C 52.05 29.76 53.38 30.48 54.68 31.25 C 57.66 35.64 60.24 40.31 63.63 44.42 C 63.17 41.84 62.66 39.27 62.17 36.69 C 64.42 38.25 66.66 39.83 68.89 41.41 C 69.99 41.01 71.09 40.61 72.19 40.20 C 78.19 47.45 82.97 55.61 89.05 62.80 C 86.82 66.67 84.27 70.40 81.04 73.52 C 80.83 73.23 80.43 72.63 80.23 72.34 C 77.12 66.73 73.53 61.41 69.89 56.13 C 66.12 61.41 61.86 66.35 58.62 71.99 C 57.49 68.30 60.71 65.48 61.49 62.10 C 62.53 57.99 63.25 53.80 64.50 49.73 C 59.65 54.88 55.82 60.86 51.16 66.17 C 48.65 63.31 46.24 60.37 44.09 57.23 C 46.95 54.55 49.63 51.69 52.27 48.79 C 50.88 46.83 49.44 44.90 47.99 42.99 C 49.11 41.56 50.24 40.13 51.36 38.70 C 50.68 35.52 50.64 32.27 50.73 29.03 Z" />
<path fill="#eef8fc" opacity="1.00" d=" M 39.53 37.39 C 40.04 37.22 41.05 36.87 41.56 36.70 C 41.61 37.18 41.72 38.14 41.78 38.62 C 40.01 40.47 38.29 42.37 36.53 44.23 C 37.53 41.95 38.46 39.64 39.53 37.39 Z" />
</g>
<g id="#646f86ff">
<path fill="#646f86" opacity="1.00" d=" M 31.62 40.03 C 35.18 37.92 38.66 35.56 42.68 34.36 C 41.60 35.34 40.54 36.34 39.53 37.39 C 38.46 39.64 37.53 41.95 36.53 44.23 C 38.29 42.37 40.01 40.47 41.78 38.62 C 42.55 43.52 42.72 48.57 41.39 53.40 C 38.07 48.99 34.46 44.79 31.62 40.03 Z" />
</g>
<g id="#bce6f5ff">
<path fill="#bce6f5" opacity="1.00" d=" M 26.10 45.13 C 27.48 42.99 29.37 41.23 31.62 40.03 C 34.46 44.79 38.07 48.99 41.39 53.40 C 42.31 54.66 43.20 55.95 44.09 57.23 C 46.24 60.37 48.65 63.31 51.16 66.17 C 55.82 60.86 59.65 54.88 64.50 49.73 C 63.25 53.80 62.53 57.99 61.49 62.10 C 60.71 65.48 57.49 68.30 58.62 71.99 C 58.38 72.40 57.91 73.22 57.67 73.63 C 56.70 75.10 55.72 76.56 54.67 77.97 C 53.52 78.53 52.37 79.09 51.21 79.63 C 49.22 77.52 47.10 75.56 44.80 73.79 C 43.95 72.83 43.09 71.86 42.25 70.89 C 39.71 65.38 36.09 60.51 32.33 55.80 C 29.47 59.70 26.46 63.54 24.24 67.86 C 23.26 69.79 22.24 71.69 21.21 73.60 C 18.06 70.61 15.61 67.01 13.38 63.31 C 17.70 57.31 21.95 51.25 26.10 45.13 Z" />
</g>
<g id="#42475dff">
<path fill="#42475d" opacity="1.00" d=" M 32.33 55.80 C 36.09 60.51 39.71 65.38 42.25 70.89 C 38.58 67.10 35.59 62.74 32.30 58.63 C 29.74 62.21 27.25 65.83 24.36 69.15 C 24.33 68.83 24.27 68.18 24.24 67.86 C 26.46 63.54 29.47 59.70 32.33 55.80 Z" />
<path fill="#42475d" opacity="1.00" d=" M 44.80 73.79 C 47.10 75.56 49.22 77.52 51.21 79.63 C 52.37 79.09 53.52 78.53 54.67 77.97 C 53.49 79.61 52.29 81.25 51.08 82.86 C 48.63 80.11 46.42 77.12 44.80 73.79 Z" />
</g>
</svg>
