<?xml version="1.0" encoding="UTF-8" ?>
<!DOCTYPE svg PUBLIC "-//W3C//DTD SVG 1.1//EN" "http://www.w3.org/Graphics/SVG/1.1/DTD/svg11.dtd">
<svg width="298pt" height="86pt" viewBox="0 0 298 86" version="1.1" xmlns="http://www.w3.org/2000/svg">
<g id="#e29538ff">
<path fill="#e29538" opacity="1.00" d=" M 10.41 30.07 C 14.93 15.51 27.87 3.91 42.90 1.20 C 50.32 -0.36 58.11 0.35 65.26 2.79 C 78.00 7.21 88.35 18.03 92.04 31.01 C 93.94 37.33 94.12 44.06 93.17 50.56 C 92.48 49.74 91.79 48.92 91.10 48.10 C 90.02 48.59 88.95 49.09 87.87 49.58 C 85.60 46.56 84.72 42.05 80.92 40.53 C 82.12 43.46 83.77 46.17 85.14 49.03 C 84.99 49.42 84.71 50.20 84.56 50.59 C 83.48 49.23 82.32 47.95 81.11 46.71 C 80.94 45.06 80.18 44.34 78.81 44.55 L 77.73 44.88 C 77.94 44.52 78.36 43.80 78.57 43.44 C 79.71 41.35 81.26 39.37 83.81 39.19 C 83.38 38.25 82.95 37.32 82.54 36.38 C 85.72 36.76 88.93 36.79 92.13 36.65 C 91.74 36.48 90.94 36.16 90.54 35.99 C 88.47 35.08 86.35 34.32 84.18 33.68 C 83.79 30.76 82.73 27.67 84.04 24.83 C 84.39 24.61 85.08 24.17 85.43 23.95 C 84.00 24.10 82.56 24.25 81.13 24.39 C 79.72 23.18 78.29 21.99 76.77 20.92 C 77.67 22.98 78.99 24.80 80.29 26.61 L 79.14 27.06 C 78.64 26.68 77.63 25.93 77.13 25.55 C 74.24 22.48 69.99 24.50 66.40 24.28 C 67.47 21.95 70.13 21.50 72.18 20.42 C 70.35 20.60 68.55 21.03 66.79 21.56 C 65.92 21.07 65.06 20.57 64.20 20.07 C 64.25 20.56 64.36 21.54 64.42 22.03 L 64.51 22.93 C 63.66 24.11 62.80 25.28 62.00 26.49 L 62.06 26.98 C 62.29 27.72 62.53 28.45 62.78 29.18 C 62.39 29.72 61.61 30.81 61.22 31.36 L 60.85 31.02 C 60.55 30.61 59.94 29.77 59.64 29.36 C 58.43 29.33 57.23 29.30 56.03 29.25 C 57.74 29.87 59.40 30.62 60.97 31.55 C 60.47 32.09 59.47 33.17 58.97 33.71 C 58.84 33.82 58.57 34.03 58.44 34.13 C 60.81 35.28 61.10 37.79 60.15 40.00 C 57.46 40.80 55.41 42.82 53.47 44.74 L 53.46 44.75 C 53.46 45.39 53.48 46.03 53.50 46.67 C 52.61 47.90 51.72 49.13 50.85 50.37 C 53.45 49.11 56.01 47.75 58.52 46.33 C 58.77 46.07 59.27 45.56 59.52 45.30 C 60.36 44.36 61.18 43.40 62.04 42.48 C 61.73 45.52 59.98 48.12 59.21 51.03 C 58.50 51.11 57.80 51.19 57.10 51.27 C 55.09 52.55 53.01 53.71 50.81 54.64 C 50.38 55.87 49.96 57.12 49.55 58.36 C 49.41 58.00 49.14 57.28 49.00 56.93 C 48.39 55.40 48.11 53.77 47.85 52.16 C 45.61 49.58 46.00 44.59 42.00 43.93 C 40.48 43.51 38.90 43.36 37.33 43.35 L 37.08 43.93 C 36.74 42.98 36.39 42.02 36.03 41.07 C 36.94 41.44 37.85 41.81 38.76 42.18 C 38.76 41.71 38.77 40.76 38.78 40.28 C 40.17 41.03 42.86 40.53 41.37 38.56 C 40.53 37.34 39.65 36.16 38.77 34.97 C 39.28 34.87 40.31 34.66 40.82 34.55 C 39.95 33.11 39.12 31.64 38.27 30.19 L 38.25 28.98 C 38.14 26.40 36.49 24.15 36.57 21.51 C 34.25 20.48 32.22 18.97 30.39 17.23 C 30.38 17.66 30.35 18.51 30.34 18.93 C 27.57 18.14 24.28 17.98 21.88 19.82 C 19.46 21.97 18.06 24.97 16.73 27.85 C 17.15 29.22 17.53 30.60 17.79 32.01 C 17.84 33.45 17.87 34.89 17.86 36.33 C 17.49 36.75 16.75 37.59 16.38 38.01 C 16.52 37.32 16.80 35.93 16.95 35.24 C 15.06 36.69 14.24 38.92 13.66 41.14 C 12.96 41.67 12.21 42.12 11.41 42.48 C 10.56 42.42 8.88 42.30 8.03 42.25 C 8.83 38.19 9.06 34.01 10.41 30.07 M 75.59 20.99 C 76.79 18.52 76.59 15.74 76.51 13.07 C 74.28 14.90 72.81 19.00 75.59 20.99 Z" />
<path fill="#e29538" opacity="1.00" d=" M 15.22 43.00 C 14.52 41.22 15.90 39.65 16.38 38.01 C 16.59 38.40 17.01 39.19 17.21 39.59 C 17.75 39.41 18.83 39.05 19.37 38.88 C 19.39 39.42 19.43 40.49 19.44 41.03 C 18.25 41.87 17.02 42.66 15.71 43.29 L 15.22 43.00 Z" />
<path fill="#e29538" opacity="1.00" d=" M 12.91 51.19 C 13.70 47.41 16.13 44.18 19.92 43.04 C 20.41 43.93 20.90 44.82 21.40 45.71 C 22.37 44.85 23.35 43.98 24.32 43.12 L 24.41 44.38 C 24.46 44.91 24.55 45.98 24.59 46.51 C 24.14 46.91 23.24 47.72 22.79 48.12 C 21.38 48.74 19.87 49.90 20.19 51.65 C 18.88 52.09 17.68 52.78 16.59 53.62 C 14.77 53.73 13.51 52.85 12.91 51.19 Z" />
<path fill="#e29538" opacity="1.00" d=" M 14.44 64.92 C 15.26 64.43 16.13 64.14 17.07 64.03 C 17.02 65.13 16.65 66.11 15.97 66.95 C 14.94 66.69 14.43 66.02 14.44 64.92 Z" />
</g>
<g id="#b8aca4ff">
<path fill="#b8aca4" opacity="1.00" d=" M 75.59 20.99 C 72.81 19.00 74.28 14.90 76.51 13.07 C 76.59 15.74 76.79 18.52 75.59 20.99 Z" />
<path fill="#b8aca4" opacity="1.00" d=" M 19.17 61.29 C 19.69 60.86 20.72 60.01 21.23 59.58 C 21.51 62.78 21.74 65.99 21.69 69.20 C 21.46 70.55 21.24 71.89 21.06 73.24 C 19.08 71.40 17.05 69.48 15.97 66.95 C 16.65 66.11 17.02 65.13 17.07 64.03 C 17.70 63.06 18.40 62.14 19.17 61.29 Z" />
</g>
<g id="#353435ff">
<path fill="#353435" opacity="1.00" d=" M 30.34 18.93 C 30.35 18.51 30.38 17.66 30.39 17.23 C 32.22 18.97 34.25 20.48 36.57 21.51 C 36.49 24.15 38.14 26.40 38.25 28.98 C 36.57 26.31 33.96 24.46 31.19 23.05 C 31.19 22.36 31.19 20.99 31.19 20.30 C 30.98 19.96 30.55 19.27 30.34 18.93 M 33.26 22.08 C 33.21 25.60 36.22 20.82 33.26 22.08 Z" />
<path fill="#353435" opacity="1.00" d=" M 30.09 31.95 C 29.87 30.36 31.86 30.23 32.95 29.98 C 33.16 30.40 33.58 31.22 33.78 31.63 L 33.13 32.13 C 32.58 32.18 31.47 32.27 30.92 32.32 L 30.09 31.95 Z" />
<path fill="#353435" opacity="1.00" d=" M 21.78 33.78 C 22.10 33.32 22.73 32.41 23.05 31.95 C 24.15 32.07 25.25 32.22 26.35 32.40 C 25.97 32.93 25.23 34.00 24.86 34.53 C 24.34 34.40 23.30 34.13 22.78 34.00 L 21.78 33.78 Z" />
<path fill="#353435" opacity="1.00" d=" M 13.66 41.14 C 14.24 38.92 15.06 36.69 16.95 35.24 C 16.80 35.93 16.52 37.32 16.38 38.01 C 15.90 39.65 14.52 41.22 15.22 43.00 L 15.71 43.29 C 15.44 43.59 14.89 44.18 14.62 44.48 C 14.28 43.37 13.96 42.26 13.66 41.14 Z" />
<path fill="#353435" opacity="1.00" d=" M 67.95 41.89 C 69.24 41.67 70.30 42.06 71.15 43.05 C 70.18 44.22 69.03 44.40 67.70 43.57 L 67.45 42.60 L 67.95 41.89 Z" />
<path fill="#353435" opacity="1.00" d=" M 31.93 45.94 C 29.70 42.96 34.84 42.97 34.38 46.04 C 33.59 46.40 32.78 46.37 31.93 45.94 Z" />
<path fill="#353435" opacity="1.00" d=" M 36.76 44.68 C 36.84 44.50 37.00 44.12 37.08 43.93 L 37.33 43.35 C 37.29 44.69 37.56 46.01 37.99 47.28 C 37.84 47.75 37.54 48.71 37.39 49.19 C 35.76 48.39 34.66 50.65 36.36 51.36 C 36.77 52.08 37.14 52.81 37.47 53.57 C 37.12 53.80 36.42 54.26 36.07 54.50 L 35.28 55.03 C 35.28 55.47 35.30 56.35 35.31 56.79 C 33.79 57.62 32.33 58.55 30.86 59.47 C 31.77 61.08 32.79 62.64 33.95 64.09 C 34.14 64.70 34.52 65.91 34.70 66.52 C 36.22 67.99 36.61 64.91 35.85 64.05 C 36.16 61.46 36.65 58.90 37.17 56.35 L 37.35 55.55 C 37.93 56.51 38.49 57.48 39.06 58.46 C 39.61 58.41 40.72 58.31 41.28 58.27 C 40.88 60.54 40.48 62.83 39.94 65.08 C 39.88 65.55 39.78 66.48 39.73 66.95 C 39.75 67.58 39.79 68.83 39.81 69.45 C 40.78 69.75 41.76 70.03 42.75 70.29 C 43.14 69.69 43.92 68.49 44.31 67.89 C 45.00 68.05 46.39 68.38 47.08 68.54 C 47.63 68.11 48.75 67.25 49.30 66.82 C 50.45 66.89 51.59 67.00 52.73 67.15 C 52.72 67.58 52.70 68.42 52.70 68.84 C 50.69 68.51 48.66 68.58 46.72 69.22 C 43.63 69.61 41.92 72.36 39.72 74.22 C 39.16 75.16 38.61 76.12 38.12 77.10 C 38.14 77.82 38.19 79.25 38.21 79.97 L 37.96 81.14 C 37.57 81.07 36.79 80.91 36.40 80.84 C 35.85 76.56 35.10 72.11 32.10 68.80 C 30.60 66.71 28.79 64.77 27.75 62.40 C 27.47 60.47 27.45 58.50 27.19 56.57 C 27.70 55.32 28.22 54.07 28.85 52.88 C 32.58 51.53 35.54 48.46 36.76 44.68 M 32.35 53.03 C 31.73 55.25 36.54 53.54 34.06 52.51 C 33.63 52.64 32.78 52.90 32.35 53.03 M 29.96 56.33 C 30.36 57.89 32.44 56.75 33.43 56.44 C 33.73 54.30 30.20 54.21 29.96 56.33 Z" />
<path fill="#353435" opacity="1.00" d=" M 64.53 46.23 C 64.65 45.59 64.89 44.29 65.01 43.64 C 65.30 45.17 65.47 46.71 65.66 48.26 C 67.62 48.42 69.59 48.49 71.53 48.18 C 71.37 48.55 71.06 49.28 70.90 49.64 C 70.22 49.80 68.87 50.12 68.20 50.28 C 67.85 50.87 67.15 52.06 66.80 52.65 C 66.26 51.60 65.76 50.53 65.31 49.44 C 64.97 49.50 64.29 49.62 63.95 49.68 C 64.41 48.59 64.60 47.44 64.53 46.23 Z" />
<path fill="#353435" opacity="1.00" d=" M 49.55 58.36 C 49.96 57.12 50.38 55.87 50.81 54.64 C 50.58 58.38 53.52 63.18 50.14 66.13 C 50.05 63.53 49.92 60.94 49.55 58.36 Z" />
</g>
<g id="#eae7e9ff">
<path fill="#eae7e9" opacity="1.00" d=" M 21.88 19.82 C 24.28 17.98 27.57 18.14 30.34 18.93 C 30.55 19.27 30.98 19.96 31.19 20.30 C 31.19 20.99 31.19 22.36 31.19 23.05 C 33.96 24.46 36.57 26.31 38.25 28.98 L 38.27 30.19 C 37.28 29.51 36.28 28.87 35.26 28.23 C 34.50 28.83 33.73 29.41 32.95 29.98 C 31.86 30.23 29.87 30.36 30.09 31.95 C 27.15 31.24 25.70 28.54 24.32 26.12 C 24.16 27.33 24.00 28.54 23.84 29.74 C 22.96 29.70 22.07 29.65 21.18 29.60 C 21.09 30.16 20.90 31.28 20.80 31.84 C 20.55 31.38 20.04 30.47 19.78 30.02 C 19.12 30.68 18.45 31.34 17.79 32.01 C 17.53 30.60 17.15 29.22 16.73 27.85 C 18.06 24.97 19.46 21.97 21.88 19.82 M 28.86 29.92 C 30.56 29.48 32.24 28.97 33.92 28.45 C 33.56 27.09 32.76 25.95 31.87 24.89 C 30.07 26.00 29.26 27.93 28.86 29.92 Z" />
</g>
<g id="#cad4e0ff">
<path fill="#cad4e0" opacity="1.00" d=" M 64.20 20.07 C 65.06 20.57 65.92 21.07 66.79 21.56 C 68.55 21.03 70.35 20.60 72.18 20.42 C 70.13 21.50 67.47 21.95 66.40 24.28 C 69.99 24.50 74.24 22.48 77.13 25.55 L 75.83 26.00 L 74.98 26.30 C 75.57 27.43 76.20 28.54 76.82 29.65 C 74.94 30.14 73.01 30.40 71.07 30.28 C 70.56 30.72 70.05 31.15 69.54 31.59 C 67.70 28.59 64.02 32.43 61.22 31.36 C 61.61 30.81 62.39 29.72 62.78 29.18 C 64.07 27.35 66.47 25.98 66.44 23.49 C 64.76 24.36 63.34 25.61 62.06 26.98 L 62.00 26.49 C 62.80 25.28 63.66 24.11 64.51 22.93 C 66.47 24.50 66.23 20.46 64.42 22.03 C 64.36 21.54 64.25 20.56 64.20 20.07 Z" />
</g>
<g id="#d0b58fff">
<path fill="#d0b58f" opacity="1.00" d=" M 76.77 20.92 C 78.29 21.99 79.72 23.18 81.13 24.39 C 82.56 24.25 84.00 24.10 85.43 23.95 C 85.08 24.17 84.39 24.61 84.04 24.83 C 82.81 25.47 81.56 26.06 80.29 26.61 C 78.99 24.80 77.67 22.98 76.77 20.92 Z" />
</g>
<g id="#d9d7e0ff">
<path fill="#d9d7e0" opacity="1.00" d=" M 33.26 22.08 C 36.22 20.82 33.21 25.60 33.26 22.08 Z" />
<path fill="#d9d7e0" opacity="1.00" d=" M 8.78 49.53 C 10.13 50.14 11.50 50.70 12.91 51.19 C 13.51 52.85 14.77 53.73 16.59 53.62 C 16.38 53.89 15.98 54.43 15.77 54.70 C 16.91 53.91 18.04 53.10 19.28 52.49 C 20.13 54.35 21.46 55.69 23.65 55.47 C 23.51 56.02 23.24 57.13 23.10 57.69 C 22.50 58.34 21.88 58.98 21.23 59.58 C 20.72 60.01 19.69 60.86 19.17 61.29 C 18.34 60.16 17.50 59.03 16.66 57.90 C 15.36 59.39 14.11 60.93 12.93 62.51 C 11.04 58.36 9.70 53.99 8.78 49.53 Z" />
<path fill="#d9d7e0" opacity="1.00" d=" M 49.21 80.28 C 50.17 80.95 51.12 81.61 52.07 82.30 L 51.82 83.58 C 50.69 82.99 49.02 83.92 49.51 85.31 C 48.61 85.20 46.82 84.99 45.92 84.89 L 45.89 84.00 C 46.20 83.23 46.52 82.47 46.83 81.70 C 47.43 81.34 48.62 80.63 49.21 80.28 Z" />
</g>
<g id="#937d60ff">
<path fill="#937d60" opacity="1.00" d=" M 64.42 22.03 C 66.23 20.46 66.47 24.50 64.51 22.93 L 64.42 22.03 Z" />
</g>
<g id="#e09131ff">
<path fill="#e09131" opacity="1.00" d=" M 62.06 26.98 C 63.34 25.61 64.76 24.36 66.44 23.49 C 66.47 25.98 64.07 27.35 62.78 29.18 C 62.53 28.45 62.29 27.72 62.06 26.98 Z" />
</g>
<g id="#c5b7c3ff">
<path fill="#c5b7c3" opacity="1.00" d=" M 28.86 29.92 C 29.26 27.93 30.07 26.00 31.87 24.89 C 32.76 25.95 33.56 27.09 33.92 28.45 C 32.24 28.97 30.56 29.48 28.86 29.92 Z" />
</g>
<g id="#ad987dff">
<path fill="#ad987d" opacity="1.00" d=" M 80.29 26.61 C 81.56 26.06 82.81 25.47 84.04 24.83 C 82.73 27.67 83.79 30.76 84.18 33.68 C 86.35 34.32 88.47 35.08 90.54 35.99 C 87.71 35.99 84.84 35.61 82.56 33.78 C 82.48 33.69 82.33 33.50 82.26 33.41 L 82.26 33.61 C 82.26 34.15 82.27 35.22 82.27 35.76 L 81.07 36.41 C 81.17 34.90 81.25 33.39 81.30 31.89 C 81.68 31.83 82.44 31.72 82.82 31.67 C 82.39 30.69 81.97 29.70 81.50 28.74 C 81.10 28.47 80.32 27.94 79.92 27.68 C 79.73 27.52 79.33 27.22 79.14 27.06 L 80.29 26.61 Z" />
</g>
<g id="#cdbdccff">
<path fill="#cdbdcc" opacity="1.00" d=" M 24.32 26.12 C 25.70 28.54 27.15 31.24 30.09 31.95 L 30.92 32.32 L 31.07 33.12 C 30.46 33.31 29.25 33.68 28.64 33.87 C 27.89 33.36 27.13 32.87 26.35 32.40 C 25.25 32.22 24.15 32.07 23.05 31.95 C 22.73 32.41 22.10 33.32 21.78 33.78 C 20.46 34.62 19.14 35.44 17.86 36.33 C 17.87 34.89 17.84 33.45 17.79 32.01 C 18.45 31.34 19.12 30.68 19.78 30.02 C 20.04 30.47 20.55 31.38 20.80 31.84 C 20.90 31.28 21.09 30.16 21.18 29.60 C 22.07 29.65 22.96 29.70 23.84 29.74 C 24.00 28.54 24.16 27.33 24.32 26.12 Z" />
</g>
<g id="#b3bdcbff">
<path fill="#b3bdcb" opacity="1.00" d=" M 74.98 26.30 L 75.83 26.00 C 76.84 27.27 77.79 28.58 78.74 29.90 C 78.16 30.75 77.59 31.61 77.01 32.47 C 77.78 32.53 78.54 32.60 79.31 32.66 C 79.62 34.06 79.94 35.46 80.26 36.86 C 80.46 36.75 80.87 36.52 81.07 36.41 L 82.27 35.76 C 81.65 37.00 80.99 38.23 80.26 39.41 C 79.78 38.46 79.30 37.52 78.83 36.57 C 78.12 36.98 77.40 37.38 76.68 37.78 C 76.58 37.58 76.37 37.19 76.27 36.99 C 75.37 35.60 74.80 33.51 72.89 33.26 C 71.96 33.50 71.11 33.96 70.24 34.36 C 69.61 33.87 68.98 33.39 68.35 32.90 C 68.01 32.70 67.33 32.30 66.99 32.10 C 65.56 30.95 63.97 33.46 65.67 34.22 L 66.17 34.68 C 65.28 35.20 65.12 35.93 65.68 36.88 C 65.53 38.16 65.39 39.45 65.27 40.73 C 64.95 40.83 64.29 41.02 63.97 41.12 C 63.30 41.53 62.66 41.99 62.04 42.48 C 61.18 43.40 60.36 44.36 59.52 45.30 C 58.87 44.70 58.22 44.10 57.57 43.50 C 56.30 44.22 55.03 45.34 53.47 44.74 C 55.41 42.82 57.46 40.80 60.15 40.00 C 61.48 39.56 62.82 39.17 64.16 38.77 C 63.89 36.78 63.54 34.80 63.08 32.84 C 62.75 33.35 62.08 34.35 61.75 34.86 C 60.82 34.46 59.90 34.08 58.97 33.71 C 59.47 33.17 60.47 32.09 60.97 31.55 C 60.94 31.42 60.88 31.16 60.85 31.02 L 61.22 31.36 C 64.02 32.43 67.70 28.59 69.54 31.59 C 70.05 31.15 70.56 30.72 71.07 30.28 C 73.01 30.40 74.94 30.14 76.82 29.65 C 76.20 28.54 75.57 27.43 74.98 26.30 Z" />
<path fill="#b3bdcb" opacity="1.00" d=" M 72.96 50.99 C 71.53 49.15 72.93 47.67 74.73 46.98 C 75.31 48.38 75.91 49.77 76.53 51.16 C 75.34 51.28 74.14 51.15 72.96 50.99 Z" />
<path fill="#b3bdcb" opacity="1.00" d=" M 25.00 50.46 C 25.96 50.82 26.92 51.17 27.89 51.53 C 27.30 52.76 26.73 54.09 25.14 54.11 C 25.24 52.89 25.19 51.67 25.00 50.46 Z" />
</g>
<g id="#d8e6f2ff">
<path fill="#d8e6f2" opacity="1.00" d=" M 75.83 26.00 L 77.13 25.55 C 77.63 25.93 78.64 26.68 79.14 27.06 C 79.33 27.22 79.73 27.52 79.92 27.68 C 80.39 29.08 80.85 30.48 81.30 31.89 C 81.25 33.39 81.17 34.90 81.07 36.41 C 80.87 36.52 80.46 36.75 80.26 36.86 C 79.94 35.46 79.62 34.06 79.31 32.66 C 78.54 32.60 77.78 32.53 77.01 32.47 C 77.59 31.61 78.16 30.75 78.74 29.90 C 77.79 28.58 76.84 27.27 75.83 26.00 Z" />
</g>
<g id="#c0a5beff">
<path fill="#c0a5be" opacity="1.00" d=" M 35.26 28.23 C 36.28 28.87 37.28 29.51 38.27 30.19 C 39.12 31.64 39.95 33.11 40.82 34.55 C 40.31 34.66 39.28 34.87 38.77 34.97 C 39.65 36.16 40.53 37.34 41.37 38.56 C 38.08 39.13 36.81 35.98 36.47 33.28 C 36.02 33.76 35.56 34.25 35.11 34.74 C 34.67 33.70 34.23 32.67 33.78 31.63 C 33.58 31.22 33.16 30.40 32.95 29.98 C 33.73 29.41 34.50 28.83 35.26 28.23 Z" />
</g>
<g id="#f09301ff">
<path fill="#f09301" opacity="1.00" d=" M 79.92 27.68 C 80.32 27.94 81.10 28.47 81.50 28.74 C 81.97 29.70 82.39 30.69 82.82 31.67 C 82.44 31.72 81.68 31.83 81.30 31.89 C 80.85 30.48 80.39 29.08 79.92 27.68 Z" />
<path fill="#f09301" opacity="1.00" d=" M 275.58 54.31 C 270.24 50.67 271.27 40.43 277.96 38.93 C 280.67 38.33 285.07 37.67 286.31 40.94 C 285.82 43.63 284.60 46.25 285.01 49.06 C 285.98 50.56 287.78 51.42 288.42 53.16 C 287.79 56.08 284.03 54.57 282.52 53.18 C 280.47 54.42 277.90 55.46 275.58 54.31 M 274.44 48.01 C 274.06 50.56 277.75 52.94 279.43 50.49 C 280.42 47.76 282.03 44.77 281.07 41.81 C 277.90 42.33 274.83 44.65 274.44 48.01 Z" />
<path fill="#f09301" opacity="1.00" d=" M 21.23 59.58 C 21.88 58.98 22.50 58.34 23.10 57.69 C 23.38 58.13 23.93 59.02 24.21 59.47 C 23.51 62.75 22.49 65.95 21.69 69.20 C 21.74 65.99 21.51 62.78 21.23 59.58 Z" />
</g>
<g id="#3c6a90ff">
<path fill="#3c6a90" opacity="1.00" d=" M 56.03 29.25 C 57.23 29.30 58.43 29.33 59.64 29.36 C 59.94 29.77 60.55 30.61 60.85 31.02 C 60.88 31.16 60.94 31.42 60.97 31.55 C 59.40 30.62 57.74 29.87 56.03 29.25 Z" />
<path fill="#3c6a90" opacity="1.00" d=" M 77.04 60.58 C 77.41 60.14 78.14 59.26 78.50 58.82 C 79.52 59.41 80.54 60.00 81.56 60.59 L 80.71 61.74 L 79.90 62.15 C 80.45 65.44 79.68 69.01 77.03 71.23 C 76.73 68.79 78.06 65.68 75.99 63.74 C 75.47 67.43 74.38 71.07 74.63 74.84 C 73.81 73.78 72.98 72.73 72.14 71.69 C 71.92 74.66 71.68 77.64 71.52 80.61 L 71.49 81.17 C 68.61 80.37 69.90 76.59 69.17 74.43 C 69.69 73.66 70.20 72.88 70.69 72.09 L 70.92 71.72 L 71.05 70.57 C 71.98 67.79 76.32 65.26 73.96 62.24 C 74.85 61.73 75.75 61.25 76.66 60.79 L 77.04 60.58 Z" />
</g>
<g id="#92302fff">
<path fill="#92302f" opacity="1.00" d=" M 30.92 32.32 C 31.47 32.27 32.58 32.18 33.13 32.13 C 32.61 32.38 31.58 32.87 31.07 33.12 L 30.92 32.32 Z" />
<path fill="#92302f" opacity="1.00" d=" M 22.93 48.92 C 23.88 48.47 24.84 48.08 25.83 47.73 L 27.24 48.65 C 27.31 48.68 27.45 48.73 27.52 48.76 C 28.14 48.80 29.37 48.88 29.99 48.92 C 30.50 48.86 31.52 48.72 32.03 48.65 C 30.95 50.05 29.86 51.43 28.85 52.88 C 28.22 54.07 27.70 55.32 27.19 56.57 C 26.64 56.46 25.53 56.25 24.97 56.15 C 24.72 57.25 24.46 58.36 24.21 59.47 C 23.93 59.02 23.38 58.13 23.10 57.69 C 23.24 57.13 23.51 56.02 23.65 55.47 C 21.46 55.69 20.13 54.35 19.28 52.49 C 20.32 52.02 21.38 51.59 22.39 51.07 C 22.53 50.53 22.80 49.46 22.93 48.92 M 23.13 53.38 C 22.32 54.94 24.74 55.84 25.14 54.11 C 26.73 54.09 27.30 52.76 27.89 51.53 C 26.92 51.17 25.96 50.82 25.00 50.46 C 23.80 50.66 23.57 52.43 23.13 53.38 Z" />
<path fill="#92302f" opacity="1.00" d=" M 35.31 56.79 C 35.78 56.68 36.70 56.46 37.17 56.35 C 36.65 58.90 36.16 61.46 35.85 64.05 C 35.37 64.06 34.43 64.08 33.95 64.09 C 32.79 62.64 31.77 61.08 30.86 59.47 C 32.33 58.55 33.79 57.62 35.31 56.79 Z" />
</g>
<g id="#eee8e8ff">
<path fill="#eee8e8" opacity="1.00" d=" M 33.13 32.13 L 33.78 31.63 C 34.23 32.67 34.67 33.70 35.11 34.74 C 33.88 36.10 32.75 37.55 31.66 39.02 C 30.70 39.38 29.74 39.74 28.78 40.11 C 29.46 39.13 30.19 38.18 30.71 37.10 C 30.10 35.98 29.36 34.93 28.64 33.87 C 29.25 33.68 30.46 33.31 31.07 33.12 C 31.58 32.87 32.61 32.38 33.13 32.13 Z" />
</g>
<g id="#8995aaff">
<path fill="#8995aa" opacity="1.00" d=" M 65.67 34.22 C 63.97 33.46 65.56 30.95 66.99 32.10 C 66.66 32.63 66.00 33.69 65.67 34.22 Z" />
</g>
<g id="#e2c2c2ff">
<path fill="#e2c2c2" opacity="1.00" d=" M 66.99 32.10 C 67.33 32.30 68.01 32.70 68.35 32.90 C 68.28 33.40 68.15 34.39 68.08 34.89 C 67.60 34.83 66.65 34.73 66.17 34.68 L 65.67 34.22 C 66.00 33.69 66.66 32.63 66.99 32.10 Z" />
</g>
<g id="#f3b713ff">
<path fill="#f3b713" opacity="1.00" d=" M 174.48 35.71 C 174.00 34.34 173.89 31.90 175.95 31.97 C 178.47 31.82 178.13 35.08 177.64 36.70 C 176.58 36.43 175.35 36.47 174.48 35.71 Z" />
</g>
<g id="#f2af0fff">
<path fill="#f2af0f" opacity="1.00" d=" M 192.15 32.03 C 193.82 30.70 196.11 32.11 196.46 33.99 C 196.24 37.01 195.73 40.00 195.37 43.00 C 197.43 42.02 200.08 39.98 202.32 41.70 C 203.88 43.07 202.99 45.27 202.93 47.02 C 202.25 49.63 204.14 51.88 204.47 54.39 C 202.48 54.67 199.92 54.16 199.30 51.96 C 199.10 49.91 199.81 47.91 199.99 45.88 C 198.17 44.64 196.75 46.86 195.40 47.73 C 195.49 49.79 195.53 51.86 195.60 53.92 C 193.51 54.41 191.47 53.25 191.04 51.11 C 190.73 46.62 193.47 42.40 192.55 37.87 C 192.51 35.93 191.41 33.92 192.15 32.03 Z" />
</g>
<g id="#f1a108ff">
<path fill="#f1a108" opacity="1.00" d=" M 235.38 34.00 C 236.92 31.17 240.70 32.28 242.00 34.79 C 241.93 33.24 243.14 31.12 244.95 32.21 C 246.62 32.94 245.84 35.29 245.65 36.71 C 244.17 36.54 242.83 35.93 241.68 35.00 C 240.60 39.00 238.90 42.82 238.15 46.91 C 237.33 49.62 237.27 52.95 234.81 54.79 C 231.94 55.90 228.87 53.79 228.27 50.92 C 226.87 45.46 226.16 39.70 223.16 34.79 C 222.26 33.03 225.00 32.83 226.07 33.02 C 228.80 33.40 230.30 36.44 230.18 38.97 C 229.97 42.34 229.64 46.21 232.14 48.88 C 234.18 50.08 234.60 47.50 234.79 46.11 C 235.77 42.12 234.75 37.97 235.38 34.00 Z" />
</g>
<g id="#dfc9cbff">
<path fill="#dfc9cb" opacity="1.00" d=" M 26.35 32.40 C 27.13 32.87 27.89 33.36 28.64 33.87 C 29.36 34.93 30.10 35.98 30.71 37.10 C 30.19 38.18 29.46 39.13 28.78 40.11 C 29.74 39.74 30.70 39.38 31.66 39.02 L 32.20 40.09 C 31.77 42.45 28.30 42.07 27.29 40.26 C 26.75 39.92 25.66 39.23 25.12 38.88 C 24.91 38.66 24.48 38.23 24.27 38.02 C 23.61 37.35 22.95 36.67 22.29 36.00 C 22.42 35.50 22.66 34.50 22.78 34.00 C 23.30 34.13 24.34 34.40 24.86 34.53 C 25.23 34.00 25.97 32.93 26.35 32.40 M 28.73 37.28 C 29.28 37.79 29.28 37.79 28.73 37.28 Z" />
</g>
<g id="#a78da6ff">
<path fill="#a78da6" opacity="1.00" d=" M 35.11 34.74 C 35.56 34.25 36.02 33.76 36.47 33.28 C 36.81 35.98 38.08 39.13 41.37 38.56 C 42.86 40.53 40.17 41.03 38.78 40.28 C 38.77 40.76 38.76 41.71 38.76 42.18 C 37.85 41.81 36.94 41.44 36.03 41.07 C 35.47 39.83 34.77 38.66 34.02 37.52 C 34.26 39.52 34.58 41.50 34.90 43.49 C 33.91 42.43 32.95 41.33 32.20 40.09 L 31.66 39.02 C 32.75 37.55 33.88 36.10 35.11 34.74 Z" />
</g>
<g id="#9497a0ff">
<path fill="#9497a0" opacity="1.00" d=" M 61.75 34.86 C 62.08 34.35 62.75 33.35 63.08 32.84 C 63.54 34.80 63.89 36.78 64.16 38.77 C 62.82 39.17 61.48 39.56 60.15 40.00 C 61.10 37.79 60.81 35.28 58.44 34.13 C 58.57 34.03 58.84 33.82 58.97 33.71 C 59.90 34.08 60.82 34.46 61.75 34.86 Z" />
</g>
<g id="#a0a5b5ff">
<path fill="#a0a5b5" opacity="1.00" d=" M 68.35 32.90 C 68.98 33.39 69.61 33.87 70.24 34.36 C 71.11 33.96 71.96 33.50 72.89 33.26 C 74.80 33.51 75.37 35.60 76.27 36.99 C 75.62 36.81 74.32 36.45 73.67 36.26 C 74.07 33.75 70.93 35.18 72.97 36.61 C 73.02 36.92 73.14 37.52 73.20 37.82 C 73.06 38.31 72.78 39.27 72.63 39.75 C 71.13 38.57 69.62 37.38 67.88 36.54 C 67.93 36.13 68.03 35.30 68.08 34.89 C 68.15 34.39 68.28 33.40 68.35 32.90 Z" />
</g>
<g id="#b6c0cdff">
<path fill="#b6c0cd" opacity="1.00" d=" M 82.26 33.41 C 82.33 33.50 82.48 33.69 82.56 33.78 L 82.26 33.61 L 82.26 33.41 Z" />
</g>
<g id="#f5cc1dff">
<path fill="#f5cc1d" opacity="1.00" d=" M 101.84 35.92 C 100.24 32.98 104.78 31.91 106.42 33.83 C 110.19 32.14 116.26 33.17 116.48 38.18 C 113.02 37.53 109.54 37.12 106.02 37.46 C 105.56 38.99 105.47 40.59 105.48 42.19 C 108.00 41.46 110.47 40.32 113.14 40.23 C 115.61 40.32 115.70 43.37 115.27 45.19 C 112.25 45.06 109.25 44.70 106.23 44.67 C 106.36 45.64 106.62 47.58 106.75 48.55 C 109.47 48.35 112.24 47.42 114.96 47.94 C 116.40 49.28 116.54 52.18 115.08 53.48 C 111.68 53.77 107.96 52.01 104.89 54.09 C 102.89 54.93 101.09 52.83 100.76 51.05 C 100.38 45.94 103.59 40.99 101.84 35.92 Z" />
</g>
<g id="#ae9bb8ff">
<path fill="#ae9bb8" opacity="1.00" d=" M 17.86 36.33 C 19.14 35.44 20.46 34.62 21.78 33.78 L 22.78 34.00 C 22.66 34.50 22.42 35.50 22.29 36.00 C 22.95 36.67 23.61 37.35 24.27 38.02 C 24.26 39.72 24.24 41.42 24.32 43.12 C 23.35 43.98 22.37 44.85 21.40 45.71 C 20.90 44.82 20.41 43.93 19.92 43.04 C 20.88 42.33 21.81 41.58 22.72 40.80 C 21.90 40.85 20.26 40.97 19.44 41.03 C 19.43 40.49 19.39 39.42 19.37 38.88 C 18.83 39.05 17.75 39.41 17.21 39.59 C 17.01 39.19 16.59 38.40 16.38 38.01 C 16.75 37.59 17.49 36.75 17.86 36.33 Z" />
</g>
<g id="#ac7f48ff">
<path fill="#ac7f48" opacity="1.00" d=" M 82.26 33.61 L 82.56 33.78 C 84.84 35.61 87.71 35.99 90.54 35.99 C 90.94 36.16 91.74 36.48 92.13 36.65 C 88.93 36.79 85.72 36.76 82.54 36.38 L 82.27 35.76 C 82.27 35.22 82.26 34.15 82.26 33.61 Z" />
</g>
<g id="#f2a90cff">
<path fill="#f2a90c" opacity="1.00" d=" M 209.66 33.78 C 211.33 33.24 213.77 33.14 214.70 35.00 C 214.72 36.25 214.51 37.48 214.07 38.68 C 216.30 38.51 218.85 40.41 217.85 42.84 C 215.90 43.16 213.91 42.86 211.94 42.92 C 211.72 44.93 210.47 47.32 211.88 49.13 C 213.71 50.34 216.11 49.32 218.17 49.57 C 218.40 51.41 218.18 53.40 216.74 54.72 C 214.19 56.13 211.02 54.64 209.29 52.60 C 207.14 50.37 207.97 46.96 208.61 44.29 C 206.29 45.64 203.31 44.05 204.06 41.24 C 206.01 40.88 207.98 40.51 209.91 40.03 C 209.92 37.96 208.76 35.75 209.66 33.78 Z" />
</g>
<g id="#f19a04ff">
<path fill="#f19a04" opacity="1.00" d=" M 263.89 40.09 C 263.89 37.74 261.70 32.76 265.97 33.46 C 269.12 33.25 269.09 36.65 268.06 38.68 C 270.48 38.48 272.64 40.50 271.93 42.99 C 269.93 42.94 267.93 42.89 265.93 42.94 C 265.72 45.02 264.20 47.94 266.33 49.45 C 268.22 50.01 270.27 49.45 272.22 49.59 C 272.39 51.59 272.10 54.23 269.98 55.10 C 267.02 55.83 263.96 53.99 262.48 51.48 C 261.39 49.20 262.08 46.61 262.60 44.29 C 260.45 45.37 258.17 44.49 257.71 42.09 C 255.33 41.56 251.97 40.40 250.49 43.14 C 250.08 45.81 253.33 45.71 255.02 46.25 C 258.56 46.88 259.52 52.73 255.96 54.16 C 253.08 55.42 248.82 55.88 246.50 53.33 C 246.36 53.72 246.07 54.49 245.92 54.88 C 244.63 54.63 243.11 54.81 242.11 53.78 C 241.02 52.39 241.73 50.60 241.89 49.05 C 242.55 45.43 243.10 41.69 242.04 38.08 C 243.50 38.09 246.19 37.50 246.16 39.78 C 245.56 43.65 245.49 47.57 246.05 51.46 C 248.34 49.74 252.74 52.63 253.60 49.04 C 252.69 46.51 248.84 47.83 247.63 45.55 C 245.44 39.75 256.01 34.47 258.47 40.92 C 260.29 40.79 262.11 40.52 263.89 40.09 Z" />
<path fill="#f19a04" opacity="1.00" d=" M 82.39 52.93 C 82.76 52.54 83.49 51.77 83.86 51.38 C 85.58 54.57 87.62 57.56 90.02 60.29 L 89.95 61.30 C 88.79 60.83 87.63 60.36 86.49 59.82 C 86.19 58.61 85.91 57.39 85.56 56.19 C 84.53 55.07 83.47 53.99 82.39 52.93 Z" />
</g>
<g id="#77675fff">
<path fill="#77675f" opacity="1.00" d=" M 65.68 36.88 C 65.12 35.93 65.28 35.20 66.17 34.68 C 66.65 34.73 67.60 34.83 68.08 34.89 C 68.03 35.30 67.93 36.13 67.88 36.54 C 67.33 36.63 66.23 36.80 65.68 36.88 Z" />
</g>
<g id="#e2cbcfff">
<path fill="#e2cbcf" opacity="1.00" d=" M 72.97 36.61 C 70.93 35.18 74.07 33.75 73.67 36.26 L 72.97 36.61 Z" />
</g>
<g id="#726361ff">
<path fill="#726361" opacity="1.00" d=" M 72.97 36.61 L 73.67 36.26 C 74.32 36.45 75.62 36.81 76.27 36.99 C 76.37 37.19 76.58 37.58 76.68 37.78 C 76.02 37.87 74.71 38.06 74.05 38.15 L 73.20 37.82 C 73.14 37.52 73.02 36.92 72.97 36.61 Z" />
</g>
<g id="#9fa0a7ff">
<path fill="#9fa0a7" opacity="1.00" d=" M 76.68 37.78 C 77.40 37.38 78.12 36.98 78.83 36.57 C 79.30 37.52 79.78 38.46 80.26 39.41 C 80.99 38.23 81.65 37.00 82.27 35.76 L 82.54 36.38 C 82.95 37.32 83.38 38.25 83.81 39.19 C 81.26 39.37 79.71 41.35 78.57 43.44 C 77.62 42.61 76.67 41.77 75.73 40.94 C 75.98 40.49 76.49 39.59 76.75 39.14 C 75.84 38.81 74.94 38.49 74.05 38.15 C 74.71 38.06 76.02 37.87 76.68 37.78 Z" />
</g>
<g id="#8e5a56ff">
<path fill="#8e5a56" opacity="1.00" d=" M 28.73 37.28 C 29.28 37.79 29.28 37.79 28.73 37.28 Z" />
</g>
<g id="#e9c9cbff">
<path fill="#e9c9cb" opacity="1.00" d=" M 65.27 40.73 C 65.39 39.45 65.53 38.16 65.68 36.88 C 66.23 36.80 67.33 36.63 67.88 36.54 C 69.62 37.38 71.13 38.57 72.63 39.75 C 72.78 39.27 73.06 38.31 73.20 37.82 L 74.05 38.15 C 74.94 38.49 75.84 38.81 76.75 39.14 C 76.49 39.59 75.98 40.49 75.73 40.94 C 75.35 41.63 74.99 42.33 74.64 43.04 C 72.82 41.70 69.89 39.55 67.95 41.89 L 67.45 42.60 L 67.70 43.57 C 67.83 44.29 68.10 45.73 68.24 46.45 C 67.93 46.49 67.31 46.57 67.00 46.61 C 68.78 46.46 70.56 46.33 72.35 46.21 L 71.53 48.18 C 69.59 48.49 67.62 48.42 65.66 48.26 C 65.47 46.71 65.30 45.17 65.01 43.64 C 64.67 42.79 64.33 41.95 63.97 41.12 C 64.29 41.02 64.95 40.83 65.27 40.73 Z" />
</g>
<g id="#f4bd16ff">
<path fill="#f4bd16" opacity="1.00" d=" M 143.39 40.22 C 143.70 37.75 146.52 35.75 148.85 37.11 C 149.91 38.51 149.57 40.51 150.78 41.83 C 152.72 40.19 155.22 38.94 157.63 40.47 C 158.46 38.87 159.92 37.76 161.81 37.95 C 162.08 38.62 162.62 39.96 162.89 40.63 C 165.81 39.76 169.02 36.98 172.11 38.84 C 174.61 42.50 170.49 47.47 173.52 51.19 C 174.29 46.90 175.34 42.42 174.02 38.13 C 175.48 38.07 178.21 37.51 178.15 39.79 C 177.38 44.22 177.58 48.69 178.44 53.08 C 179.00 55.57 175.98 54.60 174.68 54.38 C 172.93 55.46 170.74 55.36 169.64 53.46 C 166.86 49.99 169.90 45.75 169.18 41.94 C 166.92 41.94 163.60 42.26 163.07 44.99 C 162.11 48.13 163.83 51.94 161.68 54.66 C 160.39 55.13 158.68 54.36 158.40 52.97 C 157.71 49.82 160.69 46.27 158.96 43.41 C 156.55 44.26 153.69 44.07 151.64 45.71 C 148.58 48.28 152.89 53.63 149.08 55.57 C 145.80 55.67 144.45 51.80 145.53 49.16 C 145.99 46.54 148.21 43.32 146.05 40.93 C 145.38 40.75 144.05 40.39 143.39 40.22 Z" />
</g>
<g id="#c1b6c3ff">
<path fill="#c1b6c3" opacity="1.00" d=" M 24.27 38.02 C 24.48 38.23 24.91 38.66 25.12 38.88 C 23.82 41.07 27.41 43.61 27.29 40.26 C 28.30 42.07 31.77 42.45 32.20 40.09 C 32.95 41.33 33.91 42.43 34.90 43.49 C 34.58 41.50 34.26 39.52 34.02 37.52 C 34.77 38.66 35.47 39.83 36.03 41.07 C 36.39 42.02 36.74 42.98 37.08 43.93 C 37.00 44.12 36.84 44.50 36.76 44.68 C 36.17 45.02 34.98 45.70 34.38 46.04 C 34.84 42.97 29.70 42.96 31.93 45.94 C 31.54 45.95 30.78 45.98 30.39 45.99 C 30.67 42.50 27.01 45.66 29.02 47.33 C 29.26 47.73 29.75 48.53 29.99 48.92 C 29.37 48.88 28.14 48.80 27.52 48.76 C 27.45 48.73 27.31 48.68 27.24 48.65 L 25.83 47.73 C 26.24 46.11 26.69 44.50 27.12 42.89 C 26.45 43.26 25.09 44.01 24.41 44.38 L 24.32 43.12 C 24.24 41.42 24.26 39.72 24.27 38.02 Z" />
</g>
<g id="#f5c81cff">
<path fill="#f5c81c" opacity="1.00" d=" M 116.24 38.92 C 117.55 38.05 119.32 37.49 120.73 38.54 C 123.59 40.86 120.10 45.95 123.92 47.52 C 125.34 44.70 125.34 40.94 127.93 38.85 C 129.60 37.39 132.74 38.57 132.28 41.01 C 130.35 43.52 127.53 45.49 126.70 48.71 C 125.90 50.62 126.07 52.97 124.68 54.59 C 121.85 55.64 119.76 52.46 119.67 49.98 C 119.51 46.04 118.90 42.01 116.24 38.92 Z" />
</g>
<g id="#88758aff">
<path fill="#88758a" opacity="1.00" d=" M 25.12 38.88 C 25.66 39.23 26.75 39.92 27.29 40.26 C 27.41 43.61 23.82 41.07 25.12 38.88 Z" />
</g>
<g id="#f4c51aff">
<path fill="#f4c51a" opacity="1.00" d=" M 133.63 39.72 C 135.35 38.17 137.89 38.38 140.03 38.59 C 144.37 39.96 144.35 47.64 139.80 48.79 C 138.04 49.47 136.15 49.14 134.37 48.82 C 135.37 53.35 140.27 50.02 143.17 50.77 C 144.11 54.64 138.37 55.99 135.71 54.24 C 130.08 51.73 130.29 44.01 133.63 39.72 M 134.65 44.81 C 136.31 45.31 138.64 46.70 139.99 44.87 C 141.09 44.06 140.29 42.10 139.00 42.05 C 136.89 41.33 135.78 43.53 134.65 44.81 Z" />
</g>
<g id="#f3b411ff">
<path fill="#f3b411" opacity="1.00" d=" M 179.96 40.87 C 181.95 38.72 185.13 38.47 187.89 38.52 C 189.41 38.45 190.81 39.39 190.96 40.98 C 191.19 45.02 189.20 48.93 189.98 52.97 C 190.25 55.06 191.12 57.54 189.31 59.22 C 187.19 60.84 184.24 60.81 181.75 60.30 C 179.63 59.79 177.41 57.20 179.02 55.10 C 181.12 55.43 183.21 57.56 185.31 56.35 C 187.04 54.45 186.97 51.70 187.64 49.36 C 185.32 50.11 182.23 50.77 180.44 48.61 C 178.22 46.73 178.11 43.03 179.96 40.87 M 183.00 43.98 C 182.57 46.76 185.92 47.30 187.95 46.96 C 188.03 45.09 187.96 43.21 187.63 41.36 C 185.98 41.74 182.95 41.63 183.00 43.98 Z" />
</g>
<g id="#554d5cff">
<path fill="#554d5c" opacity="1.00" d=" M 11.41 42.48 C 12.21 42.12 12.96 41.67 13.66 41.14 C 13.96 42.26 14.28 43.37 14.62 44.48 C 14.89 44.18 15.44 43.59 15.71 43.29 C 17.02 42.66 18.25 41.87 19.44 41.03 C 20.26 40.97 21.90 40.85 22.72 40.80 C 21.81 41.58 20.88 42.33 19.92 43.04 C 16.13 44.18 13.70 47.41 12.91 51.19 C 11.50 50.70 10.13 50.14 8.78 49.53 C 8.62 47.33 8.43 45.14 8.25 42.94 C 9.33 42.94 10.39 42.79 11.41 42.48 Z" />
</g>
<g id="#9897a1ff">
<path fill="#9897a1" opacity="1.00" d=" M 62.04 42.48 C 62.66 41.99 63.30 41.53 63.97 41.12 C 64.33 41.95 64.67 42.79 65.01 43.64 C 64.89 44.29 64.65 45.59 64.53 46.23 C 61.87 45.76 60.66 50.58 63.95 49.68 C 64.29 49.62 64.97 49.50 65.31 49.44 C 65.76 50.53 66.26 51.60 66.80 52.65 L 66.79 53.27 C 66.79 53.77 66.80 54.78 66.80 55.29 L 66.79 56.03 C 67.65 56.18 69.38 56.49 70.24 56.64 C 70.66 56.25 71.50 55.47 71.92 55.08 C 71.47 56.42 71.06 57.77 70.64 59.12 C 68.49 57.63 66.10 56.52 63.73 55.43 C 64.41 54.15 65.00 52.82 65.62 51.50 C 64.21 51.51 62.80 51.48 61.40 51.41 C 60.85 51.32 59.76 51.13 59.21 51.03 C 59.98 48.12 61.73 45.52 62.04 42.48 Z" />
</g>
<g id="#f8ebeaff">
<path fill="#f8ebea" opacity="1.00" d=" M 67.95 41.89 C 69.89 39.55 72.82 41.70 74.64 43.04 L 74.64 44.13 C 72.74 45.46 70.58 46.34 68.24 46.45 C 68.10 45.73 67.83 44.29 67.70 43.57 C 69.03 44.40 70.18 44.22 71.15 43.05 C 70.30 42.06 69.24 41.67 67.95 41.89 Z" />
</g>
<g id="#b0b0b9ff">
<path fill="#b0b0b9" opacity="1.00" d=" M 74.64 43.04 C 74.99 42.33 75.35 41.63 75.73 40.94 C 76.67 41.77 77.62 42.61 78.57 43.44 C 78.36 43.80 77.94 44.52 77.73 44.88 C 77.61 45.10 77.36 45.54 77.23 45.77 C 79.27 47.89 81.42 50.30 84.56 50.59 C 84.39 50.79 84.04 51.18 83.86 51.38 C 83.49 51.77 82.76 52.54 82.39 52.93 C 81.26 51.92 80.13 50.66 78.47 50.72 C 77.53 48.86 76.60 46.99 75.49 45.23 C 75.22 44.86 74.93 44.49 74.64 44.13 L 74.64 43.04 Z" />
</g>
<g id="#3f424fff">
<path fill="#3f424f" opacity="1.00" d=" M 80.92 40.53 C 84.72 42.05 85.60 46.56 87.87 49.58 C 88.95 49.09 90.02 48.59 91.10 48.10 C 91.79 48.92 92.48 49.74 93.17 50.56 C 92.44 53.89 91.65 57.26 90.02 60.29 C 87.62 57.56 85.58 54.57 83.86 51.38 C 84.04 51.18 84.39 50.79 84.56 50.59 C 84.71 50.20 84.99 49.42 85.14 49.03 C 83.77 46.17 82.12 43.46 80.92 40.53 Z" />
</g>
<g id="#a688a4ff">
<path fill="#a688a4" opacity="1.00" d=" M 24.41 44.38 C 25.09 44.01 26.45 43.26 27.12 42.89 C 26.69 44.50 26.24 46.11 25.83 47.73 C 24.84 48.08 23.88 48.47 22.93 48.92 L 22.79 48.12 C 23.24 47.72 24.14 46.91 24.59 46.51 C 24.55 45.98 24.46 44.91 24.41 44.38 Z" />
</g>
<g id="#5e5b5eff">
<path fill="#5e5b5e" opacity="1.00" d=" M 37.33 43.35 C 38.90 43.36 40.48 43.51 42.00 43.93 C 46.00 44.59 45.61 49.58 47.85 52.16 C 48.11 53.77 48.39 55.40 49.00 56.93 C 47.76 56.53 46.51 56.14 45.27 55.75 C 47.09 58.51 50.62 61.72 48.06 65.18 C 48.32 63.86 48.25 62.56 47.86 61.26 C 47.63 61.40 47.16 61.69 46.93 61.84 L 46.19 62.29 C 46.19 62.78 46.17 63.75 46.17 64.24 L 46.38 64.92 C 46.53 65.30 46.81 66.04 46.96 66.41 C 46.55 66.62 45.74 67.04 45.33 67.25 C 45.19 63.93 44.09 60.78 42.29 58.00 C 42.20 61.42 43.47 64.64 44.31 67.89 C 43.92 68.49 43.14 69.69 42.75 70.29 C 41.76 70.03 40.78 69.75 39.81 69.45 C 39.79 68.83 39.75 67.58 39.73 66.95 C 42.18 68.43 42.60 63.81 39.94 65.08 C 40.48 62.83 40.88 60.54 41.28 58.27 C 40.72 58.31 39.61 58.41 39.06 58.46 C 38.49 57.48 37.93 56.51 37.35 55.55 C 37.03 55.28 36.39 54.76 36.07 54.50 C 36.42 54.26 37.12 53.80 37.47 53.57 C 37.14 52.81 36.77 52.08 36.36 51.36 C 36.62 50.82 37.13 49.73 37.39 49.19 C 37.54 48.71 37.84 47.75 37.99 47.28 C 37.56 46.01 37.29 44.69 37.33 43.35 M 42.30 46.29 C 42.80 46.82 42.80 46.82 42.30 46.29 Z" />
<path fill="#5e5b5e" opacity="1.00" d=" M 68.24 46.45 C 70.58 46.34 72.74 45.46 74.64 44.13 C 74.93 44.49 75.22 44.86 75.49 45.23 C 75.30 45.66 74.92 46.54 74.73 46.98 C 72.93 47.67 71.53 49.15 72.96 50.99 C 70.85 51.60 68.79 52.37 66.79 53.27 L 66.80 52.65 C 67.15 52.06 67.85 50.87 68.20 50.28 C 68.87 50.12 70.22 49.80 70.90 49.64 C 71.06 49.28 71.37 48.55 71.53 48.18 L 72.35 46.21 C 70.56 46.33 68.78 46.46 67.00 46.61 C 67.31 46.57 67.93 46.49 68.24 46.45 Z" />
<path fill="#5e5b5e" opacity="1.00" d=" M 62.98 76.55 C 64.39 76.44 65.79 76.33 67.20 76.26 C 65.96 78.92 63.01 79.77 60.50 80.75 L 59.77 81.04 C 61.32 79.92 62.45 78.39 62.98 76.55 Z" />
</g>
<g id="#9fa1abff">
<path fill="#9fa1ab" opacity="1.00" d=" M 57.57 43.50 C 58.22 44.10 58.87 44.70 59.52 45.30 C 59.27 45.56 58.77 46.07 58.52 46.33 C 56.01 47.75 53.45 49.11 50.85 50.37 C 51.72 49.13 52.61 47.90 53.50 46.67 C 53.48 46.03 53.46 45.39 53.46 44.75 L 53.47 44.74 C 55.03 45.34 56.30 44.22 57.57 43.50 Z" />
</g>
<g id="#97969dff">
<path fill="#97969d" opacity="1.00" d=" M 29.02 47.33 C 27.01 45.66 30.67 42.50 30.39 45.99 C 30.05 46.33 29.36 47.00 29.02 47.33 Z" />
</g>
<g id="#f1f0efff">
<path fill="#f1f0ef" opacity="1.00" d=" M 34.38 46.04 C 34.98 45.70 36.17 45.02 36.76 44.68 C 35.54 48.46 32.58 51.53 28.85 52.88 C 29.86 51.43 30.95 50.05 32.03 48.65 C 31.52 48.72 30.50 48.86 29.99 48.92 C 29.75 48.53 29.26 47.73 29.02 47.33 C 29.36 47.00 30.05 46.33 30.39 45.99 C 30.78 45.98 31.54 45.95 31.93 45.94 C 32.78 46.37 33.59 46.40 34.38 46.04 Z" />
<path fill="#f1f0ef" opacity="1.00" d=" M 36.36 51.36 C 34.66 50.65 35.76 48.39 37.39 49.19 C 37.13 49.73 36.62 50.82 36.36 51.36 Z" />
<path fill="#f1f0ef" opacity="1.00" d=" M 29.96 56.33 C 30.20 54.21 33.73 54.30 33.43 56.44 C 32.44 56.75 30.36 57.89 29.96 56.33 Z" />
<path fill="#f1f0ef" opacity="1.00" d=" M 35.28 55.03 L 36.07 54.50 C 36.39 54.76 37.03 55.28 37.35 55.55 L 37.17 56.35 C 36.70 56.46 35.78 56.68 35.31 56.79 C 35.30 56.35 35.28 55.47 35.28 55.03 Z" />
<path fill="#f1f0ef" opacity="1.00" d=" M 61.26 68.60 L 61.82 67.82 C 61.82 68.39 61.81 69.52 61.81 70.08 C 62.53 70.10 63.96 70.13 64.67 70.15 C 64.97 70.73 65.55 71.91 65.84 72.50 C 66.43 70.90 67.08 69.32 67.84 67.80 C 67.86 69.21 67.89 72.02 67.91 73.43 L 68.17 73.31 L 68.37 73.75 C 69.12 76.29 70.27 79.29 69.30 81.81 C 67.05 82.79 64.70 83.54 62.37 84.28 C 61.72 83.11 61.11 81.93 60.50 80.75 C 63.01 79.77 65.96 78.92 67.20 76.26 C 65.79 76.33 64.39 76.44 62.98 76.55 C 62.45 78.39 61.32 79.92 59.77 81.04 C 59.30 81.25 58.34 81.68 57.87 81.90 C 57.91 81.57 58.00 80.91 58.04 80.57 C 58.79 79.72 59.56 78.89 60.35 78.08 C 58.98 75.03 58.95 71.20 61.26 68.60 Z" />
</g>
<g id="#343a4dff">
<path fill="#343a4d" opacity="1.00" d=" M 77.23 45.77 C 77.36 45.54 77.61 45.10 77.73 44.88 L 78.81 44.55 C 78.99 45.80 79.76 46.51 81.11 46.71 C 82.32 47.95 83.48 49.23 84.56 50.59 C 81.42 50.30 79.27 47.89 77.23 45.77 Z" />
</g>
<g id="#ecedf2ff">
<path fill="#ecedf2" opacity="1.00" d=" M 78.81 44.55 C 80.18 44.34 80.94 45.06 81.11 46.71 C 79.76 46.51 78.99 45.80 78.81 44.55 Z" />
<path fill="#ecedf2" opacity="1.00" d=" M 72.96 50.99 C 74.14 51.15 75.34 51.28 76.53 51.16 C 77.02 51.05 77.99 50.83 78.47 50.72 C 80.13 50.66 81.26 51.92 82.39 52.93 C 83.47 53.99 84.53 55.07 85.56 56.19 C 82.94 56.40 81.71 58.36 82.11 60.86 L 81.56 60.59 C 80.54 60.00 79.52 59.41 78.50 58.82 C 78.56 58.60 78.68 58.16 78.74 57.94 C 78.74 56.55 78.68 55.16 78.62 53.77 C 78.02 53.77 76.81 53.76 76.20 53.76 C 75.98 54.36 75.53 55.54 75.30 56.14 C 75.27 55.23 75.20 53.43 75.16 52.52 C 74.00 53.27 72.89 54.09 71.92 55.08 C 71.50 55.47 70.66 56.25 70.24 56.64 C 69.38 56.49 67.65 56.18 66.79 56.03 L 66.80 55.29 C 68.97 54.03 71.19 52.80 72.96 50.99 Z" />
<path fill="#ecedf2" opacity="1.00" d=" M 69.60 69.11 C 69.78 68.64 70.14 67.68 70.32 67.21 L 70.77 67.84 C 70.84 68.52 70.98 69.89 71.05 70.57 L 70.92 71.72 L 70.69 72.09 C 69.73 71.42 69.37 70.43 69.60 69.11 Z" />
</g>
<g id="#7d7883ff">
<path fill="#7d7883" opacity="1.00" d=" M 42.30 46.29 C 42.80 46.82 42.80 46.82 42.30 46.29 Z" />
</g>
<g id="#a6b0c4ff">
<path fill="#a6b0c4" opacity="1.00" d=" M 63.95 49.68 C 60.66 50.58 61.87 45.76 64.53 46.23 C 64.60 47.44 64.41 48.59 63.95 49.68 Z" />
</g>
<g id="#b98f5fff">
<path fill="#b98f5f" opacity="1.00" d=" M 74.73 46.98 C 74.92 46.54 75.30 45.66 75.49 45.23 C 76.60 46.99 77.53 48.86 78.47 50.72 C 77.99 50.83 77.02 51.05 76.53 51.16 C 75.91 49.77 75.31 48.38 74.73 46.98 Z" />
</g>
<g id="#e4d9e1ff">
<path fill="#e4d9e1" opacity="1.00" d=" M 20.19 51.65 C 19.87 49.90 21.38 48.74 22.79 48.12 L 22.93 48.92 C 22.80 49.46 22.53 50.53 22.39 51.07 C 21.84 51.21 20.74 51.50 20.19 51.65 Z" />
</g>
<g id="#f1feffff">
<path fill="#f1feff" opacity="1.00" d=" M 27.24 48.65 C 27.31 48.68 27.45 48.73 27.52 48.76 C 27.45 48.73 27.31 48.68 27.24 48.65 Z" />
</g>
<g id="#af6460ff">
<path fill="#af6460" opacity="1.00" d=" M 23.13 53.38 C 23.57 52.43 23.80 50.66 25.00 50.46 C 25.19 51.67 25.24 52.89 25.14 54.11 C 24.74 55.84 22.32 54.94 23.13 53.38 Z" />
</g>
<g id="#ccdee8ff">
<path fill="#ccdee8" opacity="1.00" d=" M 50.81 54.64 C 53.01 53.71 55.09 52.55 57.10 51.27 C 57.80 51.19 58.50 51.11 59.21 51.03 C 59.76 51.13 60.85 51.32 61.40 51.41 C 60.80 51.92 59.61 52.92 59.01 53.43 C 59.97 54.64 60.94 55.85 61.91 57.07 C 62.36 56.66 63.27 55.84 63.73 55.43 C 66.10 56.52 68.49 57.63 70.64 59.12 C 71.13 59.46 72.11 60.13 72.60 60.47 C 71.13 60.83 69.63 60.84 68.14 60.60 C 66.75 60.43 65.34 60.50 63.97 60.73 C 64.40 60.16 65.27 59.02 65.70 58.45 C 62.38 58.13 59.02 57.49 55.69 58.03 C 55.24 57.68 54.35 56.98 53.91 56.63 C 52.91 55.92 51.86 55.27 50.81 54.64 Z" />
</g>
<g id="#383946ff">
<path fill="#383946" opacity="1.00" d=" M 66.79 53.27 C 68.79 52.37 70.85 51.60 72.96 50.99 C 71.19 52.80 68.97 54.03 66.80 55.29 C 66.80 54.78 66.79 53.77 66.79 53.27 Z" />
<path fill="#383946" opacity="1.00" d=" M 40.07 76.76 C 42.36 76.45 44.69 76.51 46.67 77.84 C 46.69 79.12 46.74 80.41 46.83 81.70 C 46.52 82.47 46.20 83.23 45.89 84.00 C 45.65 84.26 45.18 84.76 44.94 85.02 C 43.10 85.31 41.24 84.55 39.41 84.34 L 39.39 84.11 C 39.31 83.18 39.22 82.25 39.17 81.32 C 39.46 79.80 39.77 78.28 40.07 76.76 Z" />
</g>
<g id="#363768ff">
<path fill="#363768" opacity="1.00" d=" M 61.40 51.41 C 62.80 51.48 64.21 51.51 65.62 51.50 C 65.00 52.82 64.41 54.15 63.73 55.43 C 63.27 55.84 62.36 56.66 61.91 57.07 C 60.94 55.85 59.97 54.64 59.01 53.43 C 59.61 52.92 60.80 51.92 61.40 51.41 Z" />
<path fill="#363768" opacity="1.00" d=" M 82.11 60.86 C 81.71 58.36 82.94 56.40 85.56 56.19 C 85.91 57.39 86.19 58.61 86.49 59.82 C 85.91 59.52 84.74 58.91 84.16 58.61 C 83.53 59.12 82.92 59.63 82.32 60.17 L 83.62 60.84 C 83.25 60.84 82.49 60.86 82.11 60.86 Z" />
<path fill="#363768" opacity="1.00" d=" M 64.58 68.10 C 66.58 66.97 68.76 66.21 70.81 65.15 C 70.68 65.67 70.44 66.69 70.32 67.21 C 70.14 67.68 69.78 68.64 69.60 69.11 C 69.10 70.48 69.48 72.35 68.17 73.31 L 67.91 73.43 C 67.89 72.02 67.86 69.21 67.84 67.80 C 67.08 69.32 66.43 70.90 65.84 72.50 C 65.55 71.91 64.97 70.73 64.67 70.15 C 64.65 69.63 64.60 68.61 64.58 68.10 Z" />
</g>
<g id="#fffeffff">
<path fill="#fffeff" opacity="1.00" d=" M 32.35 53.03 C 32.78 52.90 33.63 52.64 34.06 52.51 C 36.54 53.54 31.73 55.25 32.35 53.03 Z" />
</g>
<g id="#9b8d78ff">
<path fill="#9b8d78" opacity="1.00" d=" M 71.92 55.08 C 72.89 54.09 74.00 53.27 75.16 52.52 C 75.20 53.43 75.27 55.23 75.30 56.14 C 75.53 55.54 75.98 54.36 76.20 53.76 C 76.81 53.76 78.02 53.77 78.62 53.77 C 78.68 55.16 78.74 56.55 78.74 57.94 C 78.68 58.16 78.56 58.60 78.50 58.82 C 78.14 59.26 77.41 60.14 77.04 60.58 L 76.66 60.79 C 75.31 60.65 73.96 60.54 72.60 60.47 C 72.11 60.13 71.13 59.46 70.64 59.12 C 71.06 57.77 71.47 56.42 71.92 55.08 Z" />
</g>
<g id="#485a89ff">
<path fill="#485a89" opacity="1.00" d=" M 50.81 54.64 C 51.86 55.27 52.91 55.92 53.91 56.63 L 52.79 57.06 C 53.31 58.51 53.69 60.10 54.72 61.30 C 56.03 61.91 57.46 62.21 58.84 62.60 C 58.20 62.97 56.92 63.70 56.28 64.06 C 57.78 65.75 59.45 67.26 61.26 68.60 C 58.95 71.20 58.98 75.03 60.35 78.08 C 59.56 78.89 58.79 79.72 58.04 80.57 C 56.14 79.64 54.08 78.90 52.55 77.38 C 52.51 75.18 52.50 72.98 52.59 70.78 C 52.61 70.30 52.67 69.33 52.70 68.84 C 52.70 68.42 52.72 67.58 52.73 67.15 C 51.59 67.00 50.45 66.89 49.30 66.82 C 49.51 66.64 49.93 66.30 50.14 66.13 C 53.52 63.18 50.58 58.38 50.81 54.64 M 57.21 76.44 C 56.25 77.60 56.43 78.31 57.77 78.59 C 58.73 77.43 58.55 76.71 57.21 76.44 Z" />
</g>
<g id="#c0b7c8ff">
<path fill="#c0b7c8" opacity="1.00" d=" M 24.97 56.15 C 25.53 56.25 26.64 56.46 27.19 56.57 C 27.45 58.50 27.47 60.47 27.75 62.40 C 28.79 64.77 30.60 66.71 32.10 68.80 C 31.26 68.78 29.58 68.75 28.74 68.74 C 28.55 72.85 30.82 76.56 30.78 80.69 C 29.67 79.93 28.56 79.18 27.46 78.42 C 28.69 77.39 29.01 75.92 28.65 74.40 C 26.88 73.81 26.50 76.28 25.52 77.26 C 23.95 76.03 22.23 74.89 21.06 73.24 C 21.24 71.89 21.46 70.55 21.69 69.20 C 22.49 65.95 23.51 62.75 24.21 59.47 C 24.46 58.36 24.72 57.25 24.97 56.15 M 24.19 64.88 C 23.82 67.36 23.86 69.88 23.99 72.38 C 25.71 71.13 26.16 68.95 26.50 66.98 C 26.67 65.68 25.77 63.46 24.19 64.88 Z" />
<path fill="#c0b7c8" opacity="1.00" d=" M 51.78 78.21 C 51.98 78.00 52.36 77.59 52.55 77.38 C 54.08 78.90 56.14 79.64 58.04 80.57 C 58.00 80.91 57.91 81.57 57.87 81.90 C 57.66 82.13 57.25 82.58 57.04 82.81 C 55.87 82.87 54.51 82.58 53.58 83.49 C 53.34 82.73 53.01 82.01 52.61 81.32 C 52.34 80.28 52.06 79.24 51.78 78.21 Z" />
</g>
<g id="#b29275ff">
<path fill="#b29275" opacity="1.00" d=" M 45.27 55.75 C 46.51 56.14 47.76 56.53 49.00 56.93 C 49.14 57.28 49.41 58.00 49.55 58.36 C 49.92 60.94 50.05 63.53 50.14 66.13 C 49.93 66.30 49.51 66.64 49.30 66.82 C 48.75 67.25 47.63 68.11 47.08 68.54 C 46.39 68.38 45.00 68.05 44.31 67.89 C 43.47 64.64 42.20 61.42 42.29 58.00 C 44.09 60.78 45.19 63.93 45.33 67.25 C 45.74 67.04 46.55 66.62 46.96 66.41 C 47.23 66.11 47.79 65.49 48.06 65.18 C 50.62 61.72 47.09 58.51 45.27 55.75 Z" />
</g>
<g id="#383d59ff">
<path fill="#383d59" opacity="1.00" d=" M 52.79 57.06 L 53.91 56.63 C 54.35 56.98 55.24 57.68 55.69 58.03 C 57.81 60.42 60.78 61.92 63.97 60.73 C 65.34 60.50 66.75 60.43 68.14 60.60 C 65.49 62.49 63.62 65.16 61.82 67.82 L 61.26 68.60 C 59.45 67.26 57.78 65.75 56.28 64.06 C 56.92 63.70 58.20 62.97 58.84 62.60 C 57.46 62.21 56.03 61.91 54.72 61.30 C 53.69 60.10 53.31 58.51 52.79 57.06 Z" />
</g>
<g id="#cdcfd6ff">
<path fill="#cdcfd6" opacity="1.00" d=" M 55.69 58.03 C 59.02 57.49 62.38 58.13 65.70 58.45 C 65.27 59.02 64.40 60.16 63.97 60.73 C 60.78 61.92 57.81 60.42 55.69 58.03 Z" />
</g>
<g id="#c9c7cfff">
<path fill="#c9c7cf" opacity="1.00" d=" M 12.93 62.51 C 14.11 60.93 15.36 59.39 16.66 57.90 C 17.50 59.03 18.34 60.16 19.17 61.29 C 18.40 62.14 17.70 63.06 17.07 64.03 C 16.13 64.14 15.26 64.43 14.44 64.92 C 13.93 64.12 13.43 63.32 12.93 62.51 Z" />
</g>
<g id="#cacad2ff">
<path fill="#cacad2" opacity="1.00" d=" M 82.32 60.17 C 82.92 59.63 83.53 59.12 84.16 58.61 C 84.74 58.91 85.91 59.52 86.49 59.82 C 87.63 60.36 88.79 60.83 89.95 61.30 C 88.68 63.34 87.47 65.42 86.12 67.41 C 85.42 67.31 84.01 67.12 83.31 67.02 C 82.95 64.96 82.58 62.90 82.11 60.86 C 82.49 60.86 83.25 60.84 83.62 60.84 L 82.32 60.17 Z" />
</g>
<g id="#eaebecff">
<path fill="#eaebec" opacity="1.00" d=" M 72.60 60.47 C 73.96 60.54 75.31 60.65 76.66 60.79 C 75.75 61.25 74.85 61.73 73.96 62.24 C 73.41 62.76 72.30 63.81 71.75 64.33 C 71.51 64.53 71.04 64.95 70.81 65.15 C 68.76 66.21 66.58 66.97 64.58 68.10 C 64.60 68.61 64.65 69.63 64.67 70.15 C 63.96 70.13 62.53 70.10 61.81 70.08 C 61.81 69.52 61.82 68.39 61.82 67.82 C 63.62 65.16 65.49 62.49 68.14 60.60 C 69.63 60.84 71.13 60.83 72.60 60.47 Z" />
</g>
<g id="#2d44d6ff">
<path fill="#2d44d6" opacity="1.00" d=" M 46.93 61.84 C 47.16 61.69 47.63 61.40 47.86 61.26 C 48.25 62.56 48.32 63.86 48.06 65.18 C 47.64 65.12 46.80 64.99 46.38 64.92 L 46.17 64.24 C 46.36 63.64 46.74 62.44 46.93 61.84 Z" />
</g>
<g id="#9798a0fa">
<path fill="#9798a0" opacity="0.98" d=" M 81.56 60.59 L 82.11 60.86 C 82.58 62.90 82.95 64.96 83.31 67.02 C 84.01 67.12 85.42 67.31 86.12 67.41 C 85.48 68.35 84.83 69.29 84.19 70.23 C 83.58 69.83 82.37 69.02 81.77 68.62 C 81.11 66.39 80.67 64.08 80.71 61.74 L 81.56 60.59 Z" />
</g>
<g id="#7b9eb5ff">
<path fill="#7b9eb5" opacity="1.00" d=" M 46.19 62.29 L 46.93 61.84 C 46.74 62.44 46.36 63.64 46.17 64.24 C 46.17 63.75 46.19 62.78 46.19 62.29 Z" />
</g>
<g id="#efefefff">
<path fill="#efefef" opacity="1.00" d=" M 79.90 62.15 L 80.71 61.74 C 80.67 64.08 81.11 66.39 81.77 68.62 C 81.10 69.19 80.44 69.77 79.78 70.35 C 77.25 72.31 76.20 75.41 74.99 78.25 C 74.06 79.31 72.68 79.84 71.52 80.61 C 71.68 77.64 71.92 74.66 72.14 71.69 C 72.98 72.73 73.81 73.78 74.63 74.84 C 74.38 71.07 75.47 67.43 75.99 63.74 C 78.06 65.68 76.73 68.79 77.03 71.23 C 79.68 69.01 80.45 65.44 79.90 62.15 Z" />
</g>
<g id="#3b70b1ff">
<path fill="#3b70b1" opacity="1.00" d=" M 71.75 64.33 C 72.30 63.81 73.41 62.76 73.96 62.24 C 76.32 65.26 71.98 67.79 71.05 70.57 C 70.98 69.89 70.84 68.52 70.77 67.84 C 72.22 67.28 72.47 65.57 71.75 64.33 Z" />
</g>
<g id="#836475ff">
<path fill="#836475" opacity="1.00" d=" M 33.95 64.09 C 34.43 64.08 35.37 64.06 35.85 64.05 C 36.61 64.91 36.22 67.99 34.70 66.52 C 34.52 65.91 34.14 64.70 33.95 64.09 Z" />
</g>
<g id="#6cc0dcff">
<path fill="#6cc0dc" opacity="1.00" d=" M 70.81 65.15 C 71.04 64.95 71.51 64.53 71.75 64.33 C 72.47 65.57 72.22 67.28 70.77 67.84 L 70.32 67.21 C 70.44 66.69 70.68 65.67 70.81 65.15 Z" />
</g>
<g id="#de9037ff">
<path fill="#de9037" opacity="1.00" d=" M 24.19 64.88 C 25.77 63.46 26.67 65.68 26.50 66.98 C 26.16 68.95 25.71 71.13 23.99 72.38 C 23.86 69.88 23.82 67.36 24.19 64.88 Z" />
</g>
<g id="#9b999fff">
<path fill="#9b999f" opacity="1.00" d=" M 39.94 65.08 C 42.60 63.81 42.18 68.43 39.73 66.95 C 39.78 66.48 39.88 65.55 39.94 65.08 Z" />
</g>
<g id="#141357ff">
<path fill="#141357" opacity="1.00" d=" M 46.38 64.92 C 46.80 64.99 47.64 65.12 48.06 65.18 C 47.79 65.49 47.23 66.11 46.96 66.41 C 46.81 66.04 46.53 65.30 46.38 64.92 Z" />
</g>
<g id="#506aa7ff">
<path fill="#506aa7" opacity="1.00" d=" M 46.72 69.22 C 48.66 68.58 50.69 68.51 52.70 68.84 C 52.67 69.33 52.61 70.30 52.59 70.78 C 51.16 72.73 49.56 74.55 47.80 76.21 C 47.83 75.77 47.91 74.89 47.94 74.45 C 47.36 74.42 46.21 74.36 45.64 74.34 C 46.68 73.80 47.72 73.26 48.76 72.72 C 48.08 71.56 47.40 70.39 46.72 69.22 Z" />
</g>
<g id="#5b5b63ff">
<path fill="#5b5b63" opacity="1.00" d=" M 28.74 68.74 C 29.58 68.75 31.26 68.78 32.10 68.80 C 35.10 72.11 35.85 76.56 36.40 80.84 C 36.79 80.91 37.57 81.07 37.96 81.14 L 39.17 81.32 C 39.22 82.25 39.31 83.18 39.39 84.11 C 36.42 83.25 33.53 82.12 30.78 80.69 C 30.82 76.56 28.55 72.85 28.74 68.74 M 31.17 71.16 C 29.61 74.13 34.50 71.34 31.17 71.16 Z" />
</g>
<g id="#9e967ef5">
<path fill="#9e967e" opacity="0.96" d=" M 79.78 70.35 C 80.44 69.77 81.10 69.19 81.77 68.62 C 82.37 69.02 83.58 69.83 84.19 70.23 C 82.55 72.03 80.84 73.76 79.02 75.37 C 79.31 73.70 79.55 72.03 79.78 70.35 Z" />
</g>
<g id="#485d91ff">
<path fill="#485d91" opacity="1.00" d=" M 39.72 74.22 C 41.92 72.36 43.63 69.61 46.72 69.22 C 47.40 70.39 48.08 71.56 48.76 72.72 C 47.72 73.26 46.68 73.80 45.64 74.34 C 46.21 74.36 47.36 74.42 47.94 74.45 C 47.91 74.89 47.83 75.77 47.80 76.21 C 47.52 76.61 46.95 77.43 46.67 77.84 C 44.69 76.51 42.36 76.45 40.07 76.76 C 39.77 78.28 39.46 79.80 39.17 81.32 L 37.96 81.14 L 38.21 79.97 C 39.35 79.39 39.83 77.22 38.12 77.10 C 38.61 76.12 39.16 75.16 39.72 74.22 M 41.14 75.30 C 41.69 75.84 41.69 75.84 41.14 75.30 Z" />
</g>
<g id="#a3a3a3ff">
<path fill="#a3a3a3" opacity="1.00" d=" M 31.17 71.16 C 34.50 71.34 29.61 74.13 31.17 71.16 Z" />
</g>
<g id="#8b414cff">
<path fill="#8b414c" opacity="1.00" d=" M 52.59 70.78 C 52.50 72.98 52.51 75.18 52.55 77.38 C 52.36 77.59 51.98 78.00 51.78 78.21 C 52.06 79.24 52.34 80.28 52.61 81.32 L 52.07 82.30 C 51.12 81.61 50.17 80.95 49.21 80.28 C 48.62 80.63 47.43 81.34 46.83 81.70 C 46.74 80.41 46.69 79.12 46.67 77.84 C 48.39 80.41 50.31 77.31 47.80 76.21 C 49.56 74.55 51.16 72.73 52.59 70.78 Z" />
</g>
<g id="#5a6991eb">
<path fill="#5a6991" opacity="0.92" d=" M 74.99 78.25 C 76.20 75.41 77.25 72.31 79.78 70.35 C 79.55 72.03 79.31 73.70 79.02 75.37 C 78.03 76.72 76.38 77.39 74.99 78.25 Z" />
</g>
<g id="#645f5ee8">
<path fill="#645f5e" opacity="0.91" d=" M 25.52 77.26 C 26.50 76.28 26.88 73.81 28.65 74.40 C 29.01 75.92 28.69 77.39 27.46 78.42 C 26.92 78.22 25.83 77.83 25.29 77.63 L 25.52 77.26 Z" />
</g>
<g id="#cbae7fff">
<path fill="#cbae7f" opacity="1.00" d=" M 41.14 75.30 C 41.69 75.84 41.69 75.84 41.14 75.30 Z" />
</g>
<g id="#938b80ff">
<path fill="#938b80" opacity="1.00" d=" M 46.67 77.84 C 46.95 77.43 47.52 76.61 47.80 76.21 C 50.31 77.31 48.39 80.41 46.67 77.84 Z" />
</g>
<g id="#5a7ab5ff">
<path fill="#5a7ab5" opacity="1.00" d=" M 57.21 76.44 C 58.55 76.71 58.73 77.43 57.77 78.59 C 56.43 78.31 56.25 77.60 57.21 76.44 Z" />
</g>
<g id="#b5a88bff">
<path fill="#b5a88b" opacity="1.00" d=" M 38.12 77.10 C 39.83 77.22 39.35 79.39 38.21 79.97 C 38.19 79.25 38.14 77.82 38.12 77.10 Z" />
</g>
<g id="#384c82ff">
<path fill="#384c82" opacity="1.00" d=" M 52.61 81.32 C 53.01 82.01 53.34 82.73 53.58 83.49 L 53.45 84.43 C 53.24 84.72 52.84 85.30 52.63 85.59 L 52.09 85.31 C 52.03 84.87 51.89 84.01 51.82 83.58 L 52.07 82.30 L 52.61 81.32 Z" />
</g>
<g id="#52638ae7">
<path fill="#52638a" opacity="0.91" d=" M 57.87 81.90 C 58.34 81.68 59.30 81.25 59.77 81.04 L 60.50 80.75 C 61.11 81.93 61.72 83.11 62.37 84.28 L 62.51 84.53 C 60.12 84.87 57.74 85.25 55.34 85.47 C 55.77 84.80 56.61 83.48 57.04 82.81 C 57.25 82.58 57.66 82.13 57.87 81.90 Z" />
</g>
<g id="#d2d3d6ff">
<path fill="#d2d3d6" opacity="1.00" d=" M 53.58 83.49 C 54.51 82.58 55.87 82.87 57.04 82.81 C 56.61 83.48 55.77 84.80 55.34 85.47 C 54.91 85.44 54.05 85.38 53.61 85.35 L 53.45 84.43 L 53.58 83.49 Z" />
</g>
<g id="#7d88b3ff">
<path fill="#7d88b3" opacity="1.00" d=" M 49.51 85.31 C 49.02 83.92 50.69 82.99 51.82 83.58 C 51.89 84.01 52.03 84.87 52.09 85.31 C 51.45 85.31 50.16 85.31 49.51 85.31 Z" />
</g>
</svg>
